<svg width="60" height="69" viewBox="0 0 60 69" fill="none" xmlns="http://www.w3.org/2000/svg">
<path d="M14.6389 32.551C14.3289 32.7906 14.0974 33.1171 13.9739 33.489C13.8714 33.8119 13.6559 34.087 13.3669 34.264C13.3189 34.291 13.2499 34.323 13.2409 34.364C13.1509 34.749 12.7409 34.913 12.6179 35.274C12.5745 35.3561 12.51 35.4252 12.4309 35.474C12.3309 35.552 12.2179 35.614 12.0969 35.691C12.1969 35.783 12.2729 35.867 12.3629 35.934C12.6296 36.134 12.9013 36.3303 13.1779 36.523C13.2262 36.5522 13.2656 36.5939 13.292 36.6438C13.3184 36.6936 13.3308 36.7497 13.3279 36.806C13.2905 37.0843 13.3274 37.3676 13.4349 37.627C13.4628 37.6964 13.4748 37.7713 13.4699 37.846C13.4589 38.163 13.4549 38.481 13.4189 38.795C13.381 38.9981 13.408 39.208 13.4959 39.395C13.5368 39.4791 13.5491 39.5743 13.5309 39.666C13.4559 39.991 13.6549 40.342 13.4309 40.65C13.4708 40.6895 13.4982 40.7398 13.5097 40.7947C13.5213 40.8497 13.5165 40.9068 13.4959 40.959C13.3893 41.188 13.4289 43.2014 13.6779 43.358C13.7619 43.41 13.7429 43.517 13.7109 43.614C13.6751 43.6978 13.6647 43.7903 13.6809 43.88C13.8106 44.3489 13.7753 44.848 13.5809 45.294C13.5636 45.3367 13.5561 42.3829 13.559 42.4289C13.562 42.475 13.5753 42.5198 13.5979 42.56C13.6337 42.6287 13.6731 42.6954 13.7159 42.76C13.6529 42.914 13.5479 43.045 13.5709 43.146C13.6039 43.291 13.5509 43.428 13.6039 43.578C13.6759 43.778 13.6269 44.031 13.7039 44.233C13.7453 44.3463 13.7604 44.4675 13.7483 44.5875C13.7362 44.7075 13.6971 44.8232 13.6339 44.926C13.6201 44.9614 13.6177 45.0001 13.6269 45.037C13.6909 45.456 13.4899 44.879 13.6499 45.296L13.5799 43.186C13.6799 43.248 13.7889 43.319 13.7659 43.486C13.7289 43.739 13.8239 44.015 13.6299 44.24C13.6579 44.43 13.5299 44.601 13.5369 44.777C13.4963 45.2771 13.5117 42.7803 13.5829 43.277C13.6174 43.3803 13.6215 43.4914 13.5949 43.597C13.546 43.7175 13.5169 43.8452 13.5089 43.975C13.5009 44.103 13.4709 44.229 13.4499 44.357C13.4979 44.447 13.6499 44.468 13.6139 44.623C13.5898 44.7318 13.5971 44.8452 13.6349 44.95C13.6771 45.0618 13.6937 45.1816 13.6835 45.3007C13.6733 45.4197 13.6365 45.535 13.5759 45.638C13.5209 45.745 13.5849 45.808 13.5849 45.889C13.5849 46.123 13.8229 46.257 13.8189 46.489C13.8189 46.579 13.8529 46.705 13.8069 46.752C13.6589 46.904 13.7329 47.102 13.6649 47.252C13.5719 47.461 13.7189 47.545 13.8129 47.659C13.7639 47.735 13.6819 47.803 13.6889 47.859C13.7179 48.059 13.5989 48.251 13.6379 48.45C13.654 48.5022 13.6833 48.5494 13.7229 48.587C13.7673 48.6321 13.8144 48.6746 13.8639 48.714C13.8546 49.0573 13.8232 49.3997 13.7699 49.739C13.7059 50.1237 13.7421 50.5183 13.8749 50.885L13.7049 51.308C13.7459 51.468 13.9049 51.5 13.8779 51.658L13.6569 51.931C13.7072 52.0744 13.7447 52.222 13.7689 52.372C13.7699 52.5767 13.7941 52.7807 13.8409 52.98C13.8769 53.102 13.8339 53.256 13.8899 53.362C13.9759 53.529 13.8769 53.662 13.8359 53.783C13.707 54.1747 13.719 54.5992 13.8699 54.983C13.9414 55.14 13.9784 55.3105 13.9784 55.483C13.9784 55.6555 13.9414 55.826 13.8699 55.983L14.2889 56.183C14.2959 56.27 14.2999 56.343 14.3089 56.416C14.32 56.6507 14.4026 56.8764 14.5456 57.0628C14.6886 57.2492 14.8851 57.3875 15.1089 57.459C15.3599 57.547 15.6199 57.548 15.8659 57.613C16.3585 57.7199 16.857 57.7967 17.3589 57.843C17.7149 57.892 18.0819 57.885 18.4449 57.921C18.8699 57.963 19.2939 57.995 19.7149 58.077C19.9503 58.1372 20.1933 58.1618 20.4359 58.15C20.8229 58.1788 21.2114 58.1832 21.5989 58.163C21.7089 58.137 21.8349 58.25 21.9769 58.207C22.2721 58.1766 22.5653 58.1288 22.8549 58.064C22.9431 58.028 23.0418 58.028 23.1299 58.064C23.2869 58.141 23.4149 58.058 23.5579 58.043C23.7228 58.0457 23.8874 58.0577 24.0509 58.079C24.3269 58.079 24.5979 58.035 24.8729 58.036C25.2808 58.0853 25.6941 58.0667 26.0959 57.981C26.1318 57.9699 26.1701 57.9699 26.2059 57.981C26.2734 58.0126 26.3469 58.0289 26.4214 58.0289C26.4959 58.0289 26.5695 58.0126 26.6369 57.981C26.7759 57.908 26.9429 58.063 27.1109 57.954C27.2279 57.8957 27.3586 57.8701 27.4889 57.88C27.6315 57.8748 27.7738 57.8972 27.9079 57.946C28.1079 58.03 28.2949 57.857 28.5079 57.937C28.6719 57.9735 28.8404 57.9856 29.0079 57.973C29.2179 57.985 29.4079 57.897 29.6079 57.916C29.9049 57.9291 30.2019 57.8909 30.4859 57.803C30.5319 57.791 30.6109 57.775 30.6249 57.796C30.7139 57.925 30.8129 57.846 30.9249 57.841C31.1339 57.83 31.3489 57.668 31.5569 57.851C31.5727 57.8605 31.5903 57.8665 31.6085 57.8688C31.6268 57.871 31.6453 57.8694 31.6629 57.864C31.9279 57.77 32.2219 57.864 32.4839 57.733C32.5379 57.707 32.6239 57.748 32.6949 57.749C32.9429 57.749 33.1949 57.894 33.4389 57.713C33.4949 57.672 33.6199 57.72 33.7119 57.733C33.893 57.7731 34.0769 57.7998 34.2619 57.813C34.4549 57.813 34.6619 57.943 34.8479 57.761C34.8679 57.741 34.9479 57.789 34.9969 57.792C35.4802 57.8147 35.9609 57.8773 36.4339 57.979C36.5489 58.002 36.6799 57.97 36.8119 57.994C36.9574 57.9972 37.1022 57.9749 37.2399 57.928C37.3829 57.9 37.5149 57.802 37.6599 57.917C37.6758 57.9268 37.6938 57.9327 37.7124 57.9341C37.7311 57.9355 37.7498 57.9324 37.7669 57.925C37.8246 57.8787 37.8949 57.851 37.9686 57.8454C38.0423 57.8399 38.116 57.8568 38.1799 57.894C38.3279 57.794 38.4619 57.92 38.6029 57.92H39.7229C39.8629 57.814 40.0089 57.874 40.1469 57.92C40.5801 58.0293 41.0201 58.1095 41.4639 58.16C41.6651 58.192 41.8697 58.196 42.0719 58.172C42.3136 58.1384 42.5588 58.1405 42.7999 58.178C43.0554 58.2078 43.3129 58.2172 43.5699 58.206C43.733 58.219 43.8969 58.219 44.0599 58.206C44.2592 58.162 44.4561 58.1079 44.6499 58.044C44.761 58.0206 44.8603 57.9589 44.9305 57.8697C45.0007 57.7805 45.0373 57.6694 45.0339 57.556C45.0429 57.392 44.9869 57.217 45.1169 57.047C45.1578 57.0766 45.2043 57.0973 45.2535 57.1081C45.3028 57.1188 45.3537 57.1191 45.4031 57.1092C45.4526 57.0992 45.4994 57.0791 45.5406 57.0502C45.5819 57.0212 45.6167 56.9841 45.6429 56.941C45.6969 56.8442 45.7287 56.7366 45.7359 56.626C45.7225 56.4023 45.7424 56.1778 45.7949 55.96C45.6469 55.737 45.8239 55.526 45.8189 55.308C45.8189 55.121 45.8049 54.934 45.7919 54.748C45.7789 54.562 45.7549 54.379 45.7399 54.193C45.7381 54.0623 45.7298 53.9318 45.7149 53.802C45.6362 53.4612 45.6284 53.1079 45.6919 52.764C45.7254 52.4907 45.7254 52.2143 45.6919 51.941C45.5369 51.741 45.6309 51.507 45.6149 51.289C45.6251 51.1032 45.6127 50.9168 45.5779 50.734C45.5256 50.5562 45.5023 50.3712 45.5089 50.186C45.5029 49.72 45.4769 49.254 45.4839 48.786C45.4365 48.5306 45.4314 48.2691 45.4689 48.012C45.3689 47.851 45.4929 47.687 45.4689 47.523C45.4359 47.339 45.4219 47.153 45.4019 46.967C45.3838 46.8752 45.3771 46.7814 45.3819 46.688C45.4199 46.409 45.3079 46.145 45.3349 45.858C45.3169 45.5818 45.2656 45.3088 45.1819 45.045C45.1289 44.8465 45.1289 44.6375 45.1819 44.439C45.2114 44.3515 45.2178 44.2579 45.2002 44.1673C45.1827 44.0766 45.1419 43.9921 45.0819 43.922C45.2559 43.795 45.3469 43.643 45.2299 43.439C45.1866 43.3754 45.1594 43.3022 45.1506 43.2257C45.1419 43.1492 45.152 46.0717 45.1799 46C45.2919 45.762 45.1799 45.537 45.1989 45.309C45.2207 45.2079 45.2084 45.1024 45.1639 45.0091C45.1194 44.9157 45.0452 44.8397 44.9529 44.793C45.0115 44.741 45.0586 44.6775 45.0915 44.6064C45.1244 44.5353 45.1422 44.4583 45.1439 44.38C45.1149 44.0064 45.1229 43.6309 45.1679 43.259C45.1799 43.2233 45.1799 43.1847 45.1679 43.149C45.0419 42.949 45.1479 42.749 45.1429 42.556C45.1429 42.388 45.1269 43.221 45.1159 43.056C45.1049 42.891 45.0919 42.735 45.0789 42.575C45.0311 42.3181 45.0383 45.0539 45.0999 44.8C45.1099 44.769 45.1139 44.708 45.0999 44.7C44.9429 44.619 45.0329 44.527 45.0779 44.432C45.0848 44.416 45.088 44.3987 45.0871 44.3814C45.0862 44.3641 45.0814 44.3471 45.0729 44.332C45.0471 44.287 45.0305 44.2372 45.0243 44.1856C45.0182 44.1341 45.0224 44.0818 45.0369 44.032C45.1168 43.2702 45.0551 45.5003 44.8549 44.761C44.8319 44.668 44.7819 44.581 44.8389 44.501C44.8826 44.4412 44.9072 44.3695 44.9095 44.2955C44.9119 44.2214 44.8918 44.1484 44.8519 44.086C44.8081 43.9622 44.7978 43.829 44.8219 43.7C44.8379 43.571 44.6479 43.48 44.7709 43.344C44.7732 43.1088 44.7497 42.8741 44.7009 42.644C44.6219 42.385 44.7519 42.13 44.6679 41.886C44.6246 41.7439 44.6302 41.5915 44.6839 41.453C44.8292 41.0894 44.8478 40.6875 44.7369 40.312C44.729 40.2854 44.7266 40.2574 44.7301 40.2299C44.7335 40.2023 44.7427 40.1758 44.7569 40.152C44.8849 39.952 44.6459 39.907 44.6259 39.826C44.7095 39.6482 44.7603 39.4568 44.7759 39.261C44.7499 39.075 44.7859 38.896 44.7649 38.719C44.6749 37.966 44.7289 37.206 44.6169 36.451C44.5698 35.93 44.5588 35.4064 44.5839 34.884C44.5928 34.7552 44.625 34.6292 44.6789 34.512C44.7621 34.3362 44.7944 34.1406 44.7721 33.9475C44.7498 33.7543 44.6739 33.5712 44.5529 33.419C44.4939 33.319 44.4149 33.241 44.3529 33.144C44.0075 32.7073 43.6994 32.2423 43.4319 31.754C43.3969 31.6664 43.3353 31.5919 43.2559 31.541C43.1205 31.441 43.0094 31.3118 42.9309 31.163C42.8369 31.03 42.6219 30.995 42.6399 30.777C42.6399 30.756 42.5559 30.712 42.5079 30.707C42.3709 30.692 42.2829 30.637 42.3589 30.496C42.4349 30.355 42.3119 30.285 42.2749 30.179L42.1429 30.279L42.0659 29.945C41.979 29.9049 41.893 29.8629 41.8079 29.819C41.7989 29.819 41.8079 29.783 41.8009 29.765L41.8899 29.608C41.6089 29.317 41.3239 29.024 41.0409 28.728C40.9519 28.635 40.8279 28.549 40.7889 28.437C40.6599 28.1663 40.4593 27.936 40.2089 27.771C40.0489 27.63 39.8089 27.55 39.8169 27.271C39.8169 27.241 39.7759 27.211 39.7559 27.18C39.5239 26.82 39.1029 26.627 38.9069 26.233C38.8949 26.21 38.8419 26.199 38.8069 26.196C38.7617 26.191 38.7186 26.1744 38.6818 26.1478C38.645 26.1211 38.6157 26.0854 38.5969 26.044C38.523 25.9433 38.4381 25.851 38.3439 25.769C38.2779 25.862 38.2289 25.94 38.1699 26.009C38.1567 26.0173 38.1417 26.0222 38.1262 26.0232C38.1106 26.0243 38.0951 26.0214 38.0809 26.015C38.0692 26.0015 38.0608 25.9853 38.0566 25.9679C38.0525 25.9505 38.0526 25.9323 38.0569 25.915C38.1099 25.799 38.1729 25.687 38.2179 25.602C38.0639 25.354 37.9109 25.142 37.7949 24.912C37.6792 24.6995 37.533 24.5051 37.3609 24.335C37.0647 24.083 36.8037 23.7924 36.5849 23.471C36.5539 23.414 36.4669 23.389 36.4069 23.347C36.3629 23.316 36.2929 23.289 36.2829 23.247C36.2189 22.964 35.9529 22.847 35.7979 22.647C35.7429 22.575 35.6309 22.53 35.6069 22.453C35.5388 22.2797 35.4052 22.1403 35.2349 22.065C35.0229 21.949 34.8427 21.7828 34.7099 21.581C34.6231 21.3567 34.473 21.1625 34.2779 21.022C34.2301 20.9944 34.1915 20.9534 34.1669 20.904C33.9454 20.4947 33.6677 20.1183 33.3419 19.786C33.0589 19.424 32.7529 19.073 32.4689 18.705C31.9947 18.1531 31.5603 17.5683 31.1689 16.955C31.1344 16.8882 31.0903 16.8269 31.0379 16.773C30.8884 16.6062 30.7583 16.423 30.6499 16.227C30.5483 16.0167 30.4947 15.7865 30.4929 15.553C30.4514 15.5332 30.5382 15.5892 30.4933 15.579C30.3393 15.563 30.5069 15.72 30.4929 15.508C30.3252 15.3383 30.433 15.2858 30.3924 15.246C30.3518 15.2061 30.3819 14.9604 30.3252 14.956C30.1378 14.9064 30.4235 14.8284 30.3252 14.6614C30.4443 13.4484 30.3252 11.5044 30.3252 11.5044C30.3252 11.5044 31.4048 11.5714 32.5829 11.6555C32.4689 11.4132 34.3809 11.7966 35.1909 11.842C35.6609 11.7171 36.5882 11.9085 36.6666 11.8793C36.6666 11.486 36.7953 10.3888 36.6749 9.23734C36.648 8.98 36.6086 8.7699 36.5526 8.63662C36.4921 8.62832 36.0178 8.6443 35.3379 8.67252C35.1406 8.68071 34.9156 8.83464 34.6888 8.8446C34.5829 8.84924 34.1796 8.63662 34.1796 8.8446C33.3993 8.87941 33.752 8.8954 32.9391 8.93273C32.7872 8.93971 32.4551 8.83797 32.3095 8.8446C31.1514 8.89736 30.3693 8.94058 30.2829 8.93273C30.2526 8.83401 30.2381 8.23105 30.2212 7.5C30.2089 6.9741 30.1954 6.38192 30.1736 5.86347C30.1413 5.09534 30.0909 4.48906 30 4.50002C29.871 4.51115 29.1625 4.47353 28.5 4.43087C27.9249 4.50002 27.4024 4.35438 27.2931 4.33784C27.2636 4.27312 27.2791 4.79269 27.3093 5.5C27.6174 5.74667 27.3726 6.86395 27.4013 7.5C27.4349 8.24403 27.4567 8.82912 27.4356 8.8446C27.4525 8.9069 24.9809 8.93273 24.6624 8.72043C24.2332 8.69129 23.7872 8.93273 23.3839 8.63427C22.2209 8.55791 21.2605 8.50478 21.2591 8.55903C21.2256 8.75924 21.2466 9.36498 21.2873 10C21.3329 10.713 21.4033 11.4629 21.4493 11.7171C21.4453 11.7256 21.9975 11.6976 22.7689 11.6555C23.0229 11.4132 24.1324 11.5797 24.8529 11.5396C26.217 11.4638 27.472 11.3963 27.4734 11.4132C27.4894 11.6182 27.5104 11.8222 27.5164 12.0262C27.5304 12.4742 27.5324 12.9262 27.5474 13.3702C27.5474 13.4952 27.6394 13.6412 27.5964 13.7362C27.5467 13.8757 27.5543 14.0292 27.6174 14.1632C27.6405 14.2899 27.6513 14.4185 27.6494 14.5472L27.5594 14.4842C27.4912 14.6191 28.0279 14.9574 27.9249 15.068C27.7927 15.1478 27.6495 15.2078 27.4999 15.246C27.4951 15.4654 27.4084 15.6751 27.2569 15.834C27.1569 15.949 27.2319 16.08 27.2119 16.234C27.1093 16.2991 27.0008 16.3547 26.8879 16.4C26.7913 16.4157 26.7002 16.456 26.6236 16.5169C26.5469 16.5778 26.4871 16.6574 26.4499 16.748C26.336 16.9842 26.164 17.1875 25.9499 17.339C25.8969 17.3889 25.8517 17.4465 25.8159 17.51C25.8099 17.52 25.8219 17.544 25.8279 17.561C25.8469 17.609 25.8679 17.599 25.9129 17.572C25.9749 17.535 26.0489 17.523 26.0819 17.588C26.0439 17.71 26.0099 17.814 25.9759 17.918L25.9419 17.909L25.8209 17.738C25.406 18.0569 25.0549 18.4511 24.7859 18.9C24.8289 18.99 24.8859 19.109 24.7809 19.146C24.6139 19.204 24.5379 19.352 24.4119 19.446C24.2059 19.601 24.0209 19.782 23.8269 19.953C23.84 20.0276 23.8259 20.1044 23.7872 20.1695C23.7485 20.2347 23.6877 20.2838 23.6159 20.308C23.4599 20.362 23.4559 20.508 23.3839 20.601C23.3469 20.65 23.3909 20.76 23.3979 20.846L23.1579 20.817C23.1129 20.897 23.0669 20.976 23.0229 21.056C22.8809 21.315 22.6529 21.508 22.4949 21.756C22.4779 21.783 22.4259 21.785 22.3949 21.809C22.3639 21.833 22.3199 21.89 22.2799 21.927C22.1239 22.07 22.2189 22.286 22.1209 22.452C22.0229 22.618 21.7709 22.624 21.7679 22.852C21.7671 22.8707 21.7616 22.8889 21.7519 22.905C21.5573 23.2641 21.2967 23.5833 20.9839 23.846C20.8549 23.9363 20.7557 24.063 20.6989 24.2099C20.6421 24.3568 20.6303 24.5173 20.6649 24.671C20.5219 24.7045 20.388 24.7694 20.273 24.8608C20.1581 24.9523 20.0648 25.0681 19.9999 25.2C19.8999 25.381 19.8409 25.581 19.6539 25.691C19.4669 25.801 19.5119 26.075 19.3469 26.211C19.308 26.2507 19.2614 26.282 19.2099 26.303C19.1099 26.33 19.0869 26.417 19.0329 26.49C18.9088 26.6445 18.7977 26.809 18.7009 26.982C18.6329 27.111 18.5129 27.05 18.4009 26.999C18.2949 27.209 18.2529 27.463 18.0269 27.599C17.9889 27.799 17.7599 27.913 17.7569 28.135C17.5889 28.228 17.6849 28.435 17.5689 28.554C17.4461 28.6931 17.3124 28.8222 17.1689 28.94C17.122 28.9672 17.0815 29.0043 17.0503 29.0487C17.019 29.093 16.9978 29.1436 16.9879 29.197C16.977 29.3267 16.9306 29.4509 16.8539 29.556C16.7709 29.637 16.6379 29.635 16.5399 29.699C16.4447 29.76 16.3656 29.8431 16.3096 29.9414C16.2535 30.0396 16.222 30.1499 16.2179 30.263C16.2165 30.3384 16.1955 30.4122 16.1569 30.4771C16.1183 30.542 16.0635 30.5957 15.9979 30.633C15.6741 30.8191 15.4133 31.0976 15.2489 31.433L15.2919 31.654C15.1628 31.8102 15.0477 31.9775 14.9479 32.154C14.8833 32.3122 14.7764 32.4495 14.6389 32.551ZM15.7649 35.221C15.8196 35.1233 15.8868 35.0332 15.9649 34.953C16.2979 34.68 16.5149 34.298 16.8499 34.027C17.0149 33.8748 17.1451 33.6889 17.2319 33.482C17.3475 33.2371 17.4843 33.0029 17.6409 32.782C17.7771 32.5626 17.94 32.3611 18.1259 32.182C18.2972 32.0096 18.4191 31.7945 18.4789 31.559C18.5049 31.487 18.5169 31.409 18.6019 31.388C18.8379 31.33 18.9079 31.116 18.9889 30.939C19.057 30.765 19.1678 30.611 19.3109 30.491C19.4408 30.382 19.5282 30.2309 19.5579 30.064C19.5979 29.901 19.5129 29.682 19.8029 29.683C19.8309 29.683 19.8589 29.639 19.8869 29.614C19.9819 29.53 19.8869 29.327 20.0509 29.304C20.1053 29.295 20.1564 29.2718 20.1989 29.2366C20.2414 29.2015 20.2739 29.1557 20.2929 29.104C20.3929 28.923 20.4869 28.757 20.7189 28.704C20.7702 28.6832 20.8157 28.6503 20.8515 28.6082C20.8874 28.5661 20.9126 28.5159 20.9249 28.462C20.9349 28.069 21.2069 27.871 21.4639 27.655C21.5489 27.584 21.6389 27.52 21.7319 27.448L21.6959 27.278C21.6539 27.07 21.7269 27.012 21.9739 27.064C22.035 26.9738 22.105 26.89 22.1829 26.814C22.2572 26.7331 22.3135 26.6373 22.3479 26.533C22.3989 26.433 22.5089 26.387 22.5869 26.309C22.6649 26.231 22.7579 26.164 22.7079 26.023C22.7062 25.9956 22.7108 25.9682 22.7214 25.9429C22.732 25.9176 22.7482 25.895 22.7689 25.877C22.8509 25.804 23.0069 25.758 23.0239 25.677C23.0509 25.553 23.1069 25.536 23.2029 25.518C23.2863 25.5009 23.365 25.4663 23.434 25.4165C23.503 25.3667 23.5606 25.3028 23.6029 25.229C23.7349 25.014 23.8409 24.783 23.9579 24.56C24.0789 24.634 24.1579 24.6 24.1999 24.469L23.9809 24.275L24.1969 23.999L24.5029 24.025C24.6319 23.812 24.8829 23.686 24.9809 23.425L24.8529 23.235C24.8634 23.2078 24.8783 23.1824 24.8969 23.16C25.008 23.0637 25.1132 22.9609 25.2119 22.852C25.3039 22.736 25.3499 22.584 25.4469 22.474C25.5432 22.3883 25.65 22.3153 25.7649 22.257L25.7179 22.028C25.8268 21.9058 25.9271 21.7761 26.0179 21.64C26.0779 21.526 26.1586 21.4243 26.2559 21.34C26.3505 21.2527 26.4161 21.1386 26.4439 21.013C26.4552 20.9404 26.4854 20.8721 26.5316 20.815C26.5778 20.7579 26.6383 20.7141 26.7069 20.688C26.7882 20.6458 26.8504 20.5743 26.8809 20.488C26.9211 20.3441 26.9896 20.2097 27.0823 20.0926C27.175 19.9755 27.2901 19.8781 27.4209 19.806C27.6099 19.698 27.6819 19.506 27.8089 19.349C27.937 19.1751 28.0927 19.0234 28.2699 18.9C28.3099 18.917 28.3539 18.922 28.3749 18.947C28.5505 19.1887 28.7465 19.4149 28.9609 19.623C29.0824 19.7608 29.1871 19.9125 29.2729 20.075C29.4449 20.2954 29.633 20.5026 29.8359 20.695C29.9531 20.7873 30.0441 20.9087 30.0999 21.047C30.1358 21.1329 30.2005 21.2036 30.2829 21.247C30.619 21.486 30.9044 21.7892 31.1229 22.139C31.3753 22.5117 31.6695 22.8543 31.9999 23.16C32.2152 23.3646 32.4104 23.5893 32.5829 23.831C32.8369 24.152 33.0829 24.482 33.3469 24.839L33.6349 24.782C33.7949 24.967 33.7949 24.967 33.7349 25.222C33.8595 25.2734 33.9802 25.3339 34.0959 25.403C34.1789 25.444 34.2484 25.5078 34.2962 25.587C34.3441 25.6662 34.3682 25.7575 34.3659 25.85C34.3612 25.9439 34.3915 26.0362 34.451 26.109C34.5105 26.1819 34.5949 26.23 34.6879 26.244C34.8209 26.276 34.9309 26.413 35.0449 26.509C35.1019 26.557 35.1749 26.609 35.1909 26.676C35.2379 26.859 35.4259 26.958 35.4549 27.141C35.4659 27.2056 35.4898 27.2673 35.5252 27.3225C35.5606 27.3776 35.6068 27.4251 35.6609 27.462C35.964 27.7124 36.217 28.0177 36.4069 28.362C36.6444 28.7176 36.9121 29.0522 37.2069 29.362C37.5173 29.6267 37.7783 29.9443 37.9779 30.3C38.3629 30.7 38.6779 31.183 39.3039 31.279C39.5153 31.6704 39.7994 32.0179 40.1409 32.303C40.3169 32.4352 40.4645 32.6015 40.5749 32.792C40.6639 32.97 40.8749 33.072 40.8849 33.311C40.8849 33.363 40.9799 33.419 41.0389 33.46C41.2935 33.648 41.5158 33.8764 41.6969 34.136C41.8939 34.4767 42.1616 34.7713 42.4819 35C42.5353 35.0387 42.579 35.0893 42.6095 35.1478C42.64 35.2063 42.6566 35.271 42.6579 35.337C42.6819 35.52 42.7249 35.701 42.7509 35.884C42.7448 36.0437 42.7472 36.2036 42.7579 36.363C42.8343 36.6474 42.8466 36.9452 42.7939 37.235C42.7718 37.4033 42.7889 37.5744 42.8439 37.735C42.9218 37.9255 42.9348 38.1363 42.8809 38.335C42.8765 38.3507 42.8756 38.3672 42.8783 38.3833C42.8811 38.3994 42.8875 38.4147 42.8969 38.428C43.0449 38.513 43.0019 38.638 42.9969 38.771C42.9643 39.0929 43.0457 39.416 43.2269 39.684C43.1303 39.809 43.0612 39.9529 43.0239 40.1065C42.9867 40.26 42.9823 40.4196 43.0109 40.575C42.9976 40.8711 43.0258 41.1677 43.0949 41.456C43.1018 41.4926 43.098 41.5305 43.0839 41.565C43.0014 42.0052 42.9715 42.4537 42.9949 42.901C42.9808 43.0501 43.0111 43.2 43.0819 43.332C43.1318 43.4513 43.1481 43.5821 43.1289 43.71C43.0977 44.0825 43.1223 44.4577 43.2019 44.823C43.2359 45.0066 43.251 42.1933 43.2469 42.38C43.2469 42.735 43.2229 43.089 43.2239 43.444C43.2161 43.5921 43.2378 43.7403 43.2879 43.88C43.3686 44.1469 43.3751 44.4307 43.3069 44.701C43.2961 44.774 43.2766 44.8455 43.2489 44.914C43.1849 45.091 43.3489 42.256 43.2489 42.453C43.2022 42.6154 43.192 42.7861 43.2189 42.953C43.226 43.0452 43.249 43.1356 43.2869 43.22C43.3047 43.2526 43.3146 45.2889 43.316 45.326C43.3174 45.3632 43.3102 42.4001 43.2949 42.434C43.2258 42.5885 43.2009 42.7591 43.2229 42.927C43.2351 43.0192 43.2317 43.1129 43.2129 43.204C43.1615 43.3244 43.1359 43.4542 43.1378 43.5851C43.1397 43.7161 43.169 43.8451 43.2239 43.964C43.2488 44.0719 43.2364 44.185 43.1889 44.285C43.1499 44.3795 43.1017 44.4699 43.0449 44.555C43.0569 44.728 43.2139 44.71 43.1779 44.848C43.1299 45.032 43.3479 45.222 43.1619 45.419C43.1338 45.4434 43.1108 45.4732 43.0942 45.5066C43.0777 45.54 43.0679 45.5764 43.0655 45.6136C43.0631 45.6508 43.068 45.6881 43.0801 45.7233C43.0922 45.7586 43.1112 45.7911 43.1359 45.819C43.2359 45.942 43.1039 43.106 43.1889 43.239C42.9889 43.385 43.2999 43.582 43.1399 43.732L43.1649 44.243C43.2069 44.2018 43.2539 44.1662 43.3049 44.137C43.3214 44.1335 43.3384 44.1343 43.3545 44.1392C43.3706 44.1441 43.3852 44.153 43.3969 44.165C43.4393 44.2587 43.4582 44.3613 43.4519 44.4639C43.4456 44.5666 43.4144 44.6661 43.3609 44.754C43.3023 44.8262 43.2667 44.9143 43.2585 45.007C43.2503 45.0996 43.2699 45.1926 43.3149 45.274C43.3443 45.3814 43.3577 45.4926 43.3549 45.604C43.3729 45.786 43.1749 45.941 43.2999 46.141C43.3999 46.304 43.1869 46.495 43.3269 46.667C43.334 46.6843 43.337 46.7031 43.3358 46.7218C43.3346 46.7405 43.3292 46.7587 43.3199 46.775C43.2681 46.8844 43.2412 47.0039 43.2412 47.125C43.2412 47.246 43.2681 47.3656 43.3199 47.475C43.3764 47.6927 43.3764 47.9213 43.3199 48.139C43.2859 48.265 43.3199 48.39 43.2769 48.508C43.2487 48.6173 43.2612 48.7331 43.3119 48.834C43.3319 48.8854 43.3319 48.9425 43.3119 48.994C43.1899 49.194 43.3069 49.349 43.4119 49.519L43.2119 49.909L43.3769 50.083C43.3528 50.202 43.345 50.3238 43.3539 50.445C43.393 50.5645 43.409 50.6905 43.4009 50.816C43.5429 50.95 43.5249 51.09 43.4739 51.271C43.4205 51.4515 43.4251 51.6442 43.4869 51.822C43.5211 51.9298 43.5299 52.044 43.5125 52.1557C43.4952 52.2675 43.4522 52.3737 43.3869 52.466L43.5569 52.758C43.5268 52.9371 43.484 53.1139 43.4289 53.287C43.3409 53.511 43.2999 53.712 43.4979 53.897C43.5089 54.097 43.6239 54.282 43.5749 54.497C43.5379 54.658 43.5689 54.833 43.5399 54.997C43.5273 55.0504 43.5289 55.1062 43.5445 55.1588C43.5601 55.2114 43.5892 55.2591 43.6289 55.297C43.6877 55.3582 43.7244 55.4372 43.7333 55.5216C43.7421 55.606 43.7227 55.6909 43.6779 55.763C43.6258 55.8599 43.58 55.9601 43.5409 56.063C43.5087 56.1409 43.454 56.2075 43.3839 56.2543C43.3137 56.3011 43.2313 56.3261 43.1469 56.326C42.8309 56.355 42.5169 56.402 42.2019 56.44C42.1469 56.447 42.0769 56.476 42.0379 56.453C41.7099 56.26 41.3279 56.453 40.9949 56.304C40.9632 56.2911 38.7904 56.2852 38.6029 56.0977C38.1029 55.5977 37.9446 56.1539 37.4238 56.159C34.4893 55.84 35.5 56.5 34.6753 56.159C33.4707 56.1444 32.7633 56.2694 32.6219 56.238C32.5678 56.1756 32.529 56.1014 32.5089 56.0213C32.4887 55.9412 32.4877 55.8575 32.5059 55.777C32.5163 55.5213 32.5123 55.2652 32.4939 55.01C32.496 54.7701 32.4643 54.5311 32.3999 54.3C32.3839 54.215 32.3089 54.142 32.3879 54.052C32.4669 53.962 32.3349 53.864 32.3779 53.797C32.4779 53.644 32.2409 53.533 32.3499 53.382C32.4409 53.256 32.3139 53.133 32.3129 53.005C32.3129 52.763 32.2999 52.52 32.3009 52.278C32.3009 51.755 32.1889 51.243 32.1599 50.722C32.1528 50.3895 32.0951 50.0601 31.9889 49.745C31.956 49.6191 31.9429 49.4889 31.9499 49.359C31.9379 49.2286 31.9379 49.0974 31.9499 48.967C31.9699 48.818 31.7079 48.767 31.8129 48.643C31.9179 48.519 31.8529 48.396 31.8519 48.279C31.8472 48.1671 31.8137 48.0584 31.7546 47.9633C31.6956 47.8682 31.613 47.7899 31.5149 47.736C31.2716 47.5433 30.9841 47.4141 30.6785 47.3602C30.3728 47.3062 30.0585 47.3292 29.7639 47.427C29.6561 47.4549 29.5453 47.47 29.4339 47.472C29.2659 47.481 29.0969 47.472 28.9289 47.482C28.8537 47.4843 28.7801 47.5041 28.7139 47.5396C28.6476 47.5752 28.5904 47.6256 28.5469 47.687C28.2804 48.0754 28.1258 48.5296 28.0999 49C28.0879 49.0718 28.0709 49.1426 28.0489 49.212C27.9699 49.576 27.8889 49.94 27.8169 50.305C27.7989 50.3971 27.7989 50.4919 27.8169 50.584C27.9009 51.004 27.9916 51.4226 28.0889 51.84C28.1482 51.9758 28.1924 52.1176 28.2209 52.263C28.2139 52.4062 28.22 52.5498 28.2389 52.692C28.2911 53.0179 28.3118 53.3481 28.3009 53.678C28.2919 53.878 28.4459 54.016 28.4389 54.197C28.4003 54.3753 28.3822 54.5575 28.3849 54.74C28.4239 54.9752 28.434 55.2143 28.4149 55.452C28.4089 55.667 28.4419 55.891 28.4339 56.112C28.3394 56.1767 28.2323 56.2208 28.1196 56.2413C28.0069 56.2618 27.8912 56.2583 27.7799 56.231C27.5678 56.19 27.3482 56.214 27.1499 56.3C27.0639 56.255 26.9499 56.142 26.8719 56.166C26.6719 56.231 26.4719 56.179 26.2719 56.232C26.1639 56.261 26.0569 56.297 25.9469 56.315C25.8846 56.3354 25.8178 56.3382 25.7541 56.3228C25.6903 56.3074 25.6321 56.2746 25.5859 56.228C25.5191 56.1613 25.4339 56.1162 25.3412 56.0984C25.2486 56.0806 25.1527 56.0909 25.0659 56.128C24.8749 56.179 24.7079 56.222 24.5279 56.268C24.4958 56.2793 24.4619 56.2847 24.4279 56.284C24.1889 56.245 23.9509 56.202 23.7049 56.159C23.596 56.2173 23.4827 56.2668 23.3659 56.307C23.2099 56.348 23.1659 56.161 23.0599 56.115C22.9059 56.133 22.7869 56.289 22.6289 56.176C22.6149 56.166 22.5829 56.157 22.5759 56.164C20.5999 56.388 22.459 56.563 20.5999 56.537C20.5437 56.5346 20.4874 56.5383 20.4319 56.548C20.1051 56.6303 19.7608 56.6087 19.4469 56.486C19.3962 56.4604 19.3381 56.4536 19.2829 56.467C19.0409 56.56 18.8059 56.455 18.5679 56.452C18.3459 56.452 18.1239 56.388 17.9009 56.388C17.6435 56.391 17.3861 56.38 17.1299 56.355C16.8299 56.32 16.5209 56.155 16.2079 56.319C16.1909 56.3259 16.1719 56.3259 16.1549 56.319C15.9199 56.212 15.6859 56.103 15.4419 55.99C15.4819 55.9054 15.5131 55.817 15.5349 55.726C15.5406 55.6325 15.5362 55.5386 15.5219 55.446C15.4929 55.132 15.4629 54.816 15.4299 54.5C15.3689 53.93 15.2969 53.361 15.2439 52.789C15.2119 52.436 15.2069 52.083 15.1879 51.728C15.2138 51.5044 15.1821 51.2779 15.0959 51.07C15.0559 51.002 15.0869 50.889 15.0959 50.798C15.1209 50.4855 15.1209 50.1715 15.0959 49.859C15.0779 49.7298 15.0799 49.5986 15.1019 49.47C15.1569 49.2925 15.1569 49.1025 15.1019 48.925C15.1812 48.6057 15.1866 48.2726 15.1179 47.951C15.2188 47.6274 15.215 47.2802 15.1069 46.959C15.0939 46.8671 15.0939 46.7739 15.1069 46.682C15.1247 46.2351 15.0952 45.7876 15.0189 45.347C14.9429 44.968 14.9989 44.567 14.8979 44.185C14.9935 43.5768 15.0154 45.9594 14.9629 45.346C14.9629 45.085 14.9529 44.824 14.9279 44.565C14.9279 44.493 14.9339 44.42 14.9379 44.35C14.9641 44.2412 14.9681 44.1283 14.9499 44.018C14.8964 43.8004 14.8692 43.5771 14.8689 43.353C14.8373 43.1355 14.8265 42.9155 14.8369 42.696C14.8429 42.42 14.7859 43.142 14.7759 42.864C14.782 42.7161 14.7977 42.5688 14.8229 42.423C14.8472 42.3144 14.8536 45.2026 14.8419 45.092C14.7809 44.8975 14.774 44.6901 14.8219 44.492C14.8346 44.3069 14.8184 44.1211 14.7739 43.941C14.7639 43.8472 14.7639 43.7527 14.7739 43.659C14.8193 43.4612 14.8527 43.2608 14.8739 43.059C14.8569 42.8747 14.8282 42.6916 14.7879 42.511C14.7618 42.3624 14.7809 45.2095 14.8429 45.072C15.3532 43.9175 14.5337 42.6812 14.9519 41.59C14.9829 41.4623 14.988 41.3297 14.9669 41.2V40.64C14.9639 40.4354 14.9469 40.2312 14.9159 40.029C14.8274 39.5956 14.8028 39.1515 14.8429 38.711C14.8949 38.345 14.8859 37.97 14.9579 37.601C15.0179 37.2413 14.9563 36.8718 14.7829 36.551C14.9339 36.335 15.0909 36.106 15.2539 35.881C15.4169 35.656 15.5999 35.446 15.7649 35.221Z" fill="black"/>
<path d="M15.7649 35.221C15.8196 35.1233 15.8868 35.0332 15.9649 34.953C16.2979 34.68 16.5149 34.298 16.8499 34.027C17.0149 33.8748 17.1451 33.6889 17.2319 33.482C17.3475 33.2371 17.4843 33.0029 17.6409 32.782C17.7771 32.5626 17.94 32.3611 18.1259 32.182C18.2972 32.0096 18.4191 31.7945 18.4789 31.559C18.5049 31.487 18.5169 31.409 18.6019 31.388C18.8379 31.33 18.9079 31.116 18.9889 30.939C19.057 30.765 19.1678 30.611 19.3109 30.491C19.4408 30.382 19.5282 30.2309 19.5579 30.064C19.5979 29.901 19.5129 29.682 19.8029 29.683C19.8309 29.683 19.8589 29.639 19.8869 29.614C19.9819 29.53 19.8869 29.327 20.0509 29.304C20.1053 29.295 20.1564 29.2718 20.1989 29.2366C20.2414 29.2015 20.2739 29.1557 20.2929 29.104C20.3929 28.923 20.4869 28.757 20.7189 28.704C20.7702 28.6832 20.8157 28.6503 20.8515 28.6082C20.8874 28.5661 20.9126 28.5159 20.9249 28.462C20.9349 28.069 21.2069 27.871 21.4639 27.655C21.5489 27.584 21.6389 27.52 21.7319 27.448L21.6959 27.278C21.6539 27.07 21.7269 27.012 21.9739 27.064C22.035 26.9738 22.105 26.89 22.1829 26.814C22.2572 26.7331 22.3135 26.6373 22.3479 26.533C22.3989 26.433 22.5089 26.387 22.5869 26.309C22.6649 26.231 22.7579 26.164 22.7079 26.023C22.7062 25.9956 22.7108 25.9682 22.7214 25.9429C22.732 25.9176 22.7482 25.895 22.7689 25.877C22.8509 25.804 23.0069 25.758 23.0239 25.677C23.0509 25.553 23.1069 25.536 23.2029 25.518C23.2863 25.5009 23.365 25.4663 23.434 25.4165C23.503 25.3667 23.5606 25.3028 23.6029 25.229C23.7349 25.014 23.8409 24.783 23.9579 24.56C24.0789 24.634 24.1579 24.6 24.1999 24.469L23.9809 24.275L24.1969 23.999L24.5029 24.025C24.6319 23.812 24.8829 23.686 24.9809 23.425L24.8529 23.235C24.8634 23.2078 24.8783 23.1824 24.8969 23.16C25.008 23.0637 25.1132 22.9609 25.2119 22.852C25.3039 22.736 25.3499 22.584 25.4469 22.474C25.5432 22.3883 25.65 22.3153 25.7649 22.257L25.7179 22.028C25.8268 21.9058 25.9271 21.7761 26.0179 21.64C26.0779 21.526 26.1586 21.4243 26.2559 21.34C26.3505 21.2527 26.4161 21.1386 26.4439 21.013C26.4552 20.9404 26.4854 20.8721 26.5316 20.815C26.5778 20.7579 26.6383 20.7141 26.7069 20.688C26.7882 20.6458 26.8504 20.5743 26.8809 20.488C26.9211 20.3441 26.9896 20.2097 27.0823 20.0926C27.175 19.9755 27.2901 19.8781 27.4209 19.806C27.6099 19.698 27.6819 19.506 27.8089 19.349C27.937 19.1751 28.0927 19.0234 28.2699 18.9C28.3099 18.917 28.3539 18.922 28.3749 18.947C28.5505 19.1887 28.7465 19.4149 28.9609 19.623C29.0824 19.7608 29.1871 19.9125 29.2729 20.075C29.4449 20.2954 29.633 20.5026 29.8359 20.695C29.9531 20.7873 30.0441 20.9087 30.0999 21.047C30.1358 21.1329 30.2005 21.2036 30.2829 21.247C30.619 21.486 30.9044 21.7892 31.1229 22.139C31.3753 22.5117 31.6695 22.8543 31.9999 23.16C32.2152 23.3646 32.4104 23.5893 32.5829 23.831C32.8369 24.152 33.0829 24.482 33.3469 24.839L33.6349 24.782C33.7949 24.967 33.7949 24.967 33.7349 25.222C33.8595 25.2734 33.9802 25.3339 34.0959 25.403C34.1789 25.444 34.2484 25.5078 34.2962 25.587C34.3441 25.6662 34.3682 25.7575 34.3659 25.85C34.3612 25.9439 34.3915 26.0362 34.451 26.109C34.5105 26.1819 34.5949 26.23 34.6879 26.244C34.8209 26.276 34.9309 26.413 35.0449 26.509C35.1019 26.557 35.1749 26.609 35.1909 26.676C35.2379 26.859 35.4259 26.958 35.4549 27.141C35.4659 27.2056 35.4898 27.2673 35.5252 27.3225C35.5606 27.3776 35.6068 27.4251 35.6609 27.462C35.964 27.7124 36.217 28.0177 36.4069 28.362C36.6444 28.7176 36.9121 29.0522 37.2069 29.362C37.5173 29.6267 37.7783 29.9443 37.9779 30.3C38.3629 30.7 38.6779 31.183 39.3039 31.279C39.5153 31.6704 39.7994 32.0179 40.1409 32.303C40.3169 32.4352 40.4645 32.6015 40.5749 32.792C40.6639 32.97 40.8749 33.072 40.8849 33.311C40.8849 33.363 40.9799 33.419 41.0389 33.46C41.2935 33.648 41.5158 33.8764 41.6969 34.136C41.8939 34.4767 42.1616 34.7713 42.4819 35C42.5353 35.0387 42.579 35.0893 42.6095 35.1478C42.64 35.2063 42.6566 35.271 42.6579 35.337C42.6819 35.52 42.7249 35.701 42.7509 35.884C42.7448 36.0437 42.7472 36.2036 42.7579 36.363C42.8343 36.6474 42.8466 36.9452 42.7939 37.235C42.7718 37.4033 42.7889 37.5744 42.8439 37.735C42.9218 37.9255 42.9348 38.1363 42.8809 38.335C42.8765 38.3507 42.8756 38.3672 42.8783 38.3833C42.8811 38.3994 42.8875 38.4147 42.8969 38.428C43.0449 38.513 43.0019 38.638 42.9969 38.771C42.9643 39.0929 43.0457 39.416 43.2269 39.684C43.1303 39.809 43.0612 39.9529 43.0239 40.1065C42.9867 40.26 42.9823 40.4196 43.0109 40.575C42.9976 40.8711 43.0258 41.1677 43.0949 41.456C43.1018 41.4926 43.098 41.5305 43.0839 41.565C43.0014 42.0052 42.9715 42.4537 42.9949 42.901C42.9808 43.0501 43.0111 43.2 43.0819 43.332C43.1318 43.4513 43.1481 43.5821 43.1289 43.71C43.0977 44.0825 43.1223 44.4577 43.2019 44.823C43.2359 45.0066 43.251 42.1933 43.2469 42.38C43.2469 42.735 43.2229 43.089 43.2239 43.444C43.2161 43.5921 43.2378 43.7403 43.2879 43.88C43.3686 44.1469 43.3751 44.4307 43.3069 44.701C43.2961 44.774 43.2766 44.8455 43.2489 44.914C43.1849 45.091 43.3489 42.256 43.2489 42.453C43.2022 42.6154 43.192 42.7861 43.2189 42.953C43.226 43.0452 43.249 43.1356 43.2869 43.22C43.3047 43.2526 43.3146 45.2889 43.316 45.326C43.3174 45.3632 43.3102 42.4001 43.2949 42.434C43.2258 42.5885 43.2009 42.7591 43.2229 42.927C43.2351 43.0192 43.2317 43.1129 43.2129 43.204C43.1615 43.3244 43.1359 43.4542 43.1378 43.5851C43.1397 43.7161 43.169 43.8451 43.2239 43.964C43.2488 44.0719 43.2364 44.185 43.1889 44.285C43.1499 44.3795 43.1017 44.4699 43.0449 44.555C43.0569 44.728 43.2139 44.71 43.1779 44.848C43.1299 45.032 43.3479 45.222 43.1619 45.419C43.1338 45.4434 43.1108 45.4732 43.0942 45.5066C43.0777 45.54 43.0679 45.5764 43.0655 45.6136C43.0631 45.6508 43.068 45.6881 43.0801 45.7233C43.0922 45.7586 43.1112 45.7911 43.1359 45.819C43.2359 45.942 43.1039 43.106 43.1889 43.239C42.9889 43.385 43.2999 43.582 43.1399 43.732L43.1649 44.243C43.2069 44.2018 43.2539 44.1662 43.3049 44.137C43.3214 44.1335 43.3384 44.1343 43.3545 44.1392C43.3706 44.1441 43.3852 44.153 43.3969 44.165C43.4393 44.2587 43.4582 44.3613 43.4519 44.4639C43.4456 44.5666 43.4144 44.6661 43.3609 44.754C43.3023 44.8262 43.2667 44.9143 43.2585 45.007C43.2503 45.0996 43.2699 45.1926 43.3149 45.274C43.3443 45.3814 43.3577 45.4926 43.3549 45.604C43.3729 45.786 43.1749 45.941 43.2999 46.141C43.3999 46.304 43.1869 46.495 43.3269 46.667C43.334 46.6843 43.337 46.7031 43.3358 46.7218C43.3346 46.7405 43.3292 46.7587 43.3199 46.775C43.2681 46.8844 43.2412 47.0039 43.2412 47.125C43.2412 47.246 43.2681 47.3656 43.3199 47.475C43.3764 47.6927 43.3764 47.9213 43.3199 48.139C43.2859 48.265 43.3199 48.39 43.2769 48.508C43.2487 48.6173 43.2612 48.7331 43.3119 48.834C43.3319 48.8854 43.3319 48.9425 43.3119 48.994C43.1899 49.194 43.3069 49.349 43.4119 49.519L43.2119 49.909L43.3769 50.083C43.3528 50.202 43.345 50.3238 43.3539 50.445C43.393 50.5645 43.409 50.6905 43.4009 50.816C43.5429 50.95 43.5249 51.09 43.4739 51.271C43.4205 51.4515 43.4251 51.6442 43.4869 51.822C43.5211 51.9298 43.5299 52.044 43.5125 52.1557C43.4952 52.2675 43.4522 52.3737 43.3869 52.466L43.5569 52.758C43.5268 52.9371 43.484 53.1139 43.4289 53.287C43.3409 53.511 43.2999 53.712 43.4979 53.897C43.5089 54.097 43.6239 54.282 43.5749 54.497C43.5379 54.658 43.5689 54.833 43.5399 54.997C43.5273 55.0504 43.5289 55.1062 43.5445 55.1588C43.5601 55.2114 43.5892 55.2591 43.6289 55.297C43.6877 55.3582 43.7244 55.4372 43.7333 55.5216C43.7421 55.606 43.7227 55.6909 43.6779 55.763C43.6258 55.8599 43.58 55.9601 43.5409 56.063C43.5087 56.1409 43.454 56.2075 43.3839 56.2543C43.3137 56.3011 43.2313 56.3261 43.1469 56.326C42.8309 56.355 42.5169 56.402 42.2019 56.44C42.1469 56.447 42.0769 56.476 42.0379 56.453C41.7099 56.26 41.3279 56.453 40.9949 56.304C40.9632 56.2911 38.7904 56.2852 38.6029 56.0977C38.1029 55.5977 37.9446 56.1539 37.4238 56.159C34.4893 55.84 35.5 56.5 34.6753 56.159C33.4707 56.1444 32.7633 56.2694 32.6219 56.238C32.5678 56.1756 32.529 56.1014 32.5089 56.0213C32.4887 55.9412 32.4877 55.8575 32.5059 55.777C32.5163 55.5213 32.5123 55.2652 32.4939 55.01C32.496 54.7701 32.4643 54.5311 32.3999 54.3C32.3839 54.215 32.3089 54.142 32.3879 54.052C32.4669 53.962 32.3349 53.864 32.3779 53.797C32.4779 53.644 32.2409 53.533 32.3499 53.382C32.4409 53.256 32.3139 53.133 32.3129 53.005C32.3129 52.763 32.2999 52.52 32.3009 52.278C32.3009 51.755 32.1889 51.243 32.1599 50.722C32.1528 50.3895 32.0951 50.0601 31.9889 49.745C31.956 49.6191 31.9429 49.4889 31.9499 49.359C31.9379 49.2286 31.9379 49.0974 31.9499 48.967C31.9699 48.818 31.7079 48.767 31.8129 48.643C31.9179 48.519 31.8529 48.396 31.8519 48.279C31.8472 48.1671 31.8137 48.0584 31.7546 47.9633C31.6956 47.8682 31.613 47.7899 31.5149 47.736C31.2716 47.5433 30.9841 47.4141 30.6785 47.3602C30.3728 47.3062 30.0585 47.3292 29.7639 47.427C29.6561 47.4549 29.5453 47.47 29.4339 47.472C29.2659 47.481 29.0969 47.472 28.9289 47.482C28.8537 47.4843 28.7801 47.5041 28.7139 47.5396C28.6476 47.5752 28.5904 47.6256 28.5469 47.687C28.2804 48.0754 28.1258 48.5296 28.0999 49C28.0879 49.0718 28.0709 49.1426 28.0489 49.212C27.9699 49.576 27.8889 49.94 27.8169 50.305C27.7989 50.3971 27.7989 50.4919 27.8169 50.584C27.9009 51.004 27.9916 51.4226 28.0889 51.84C28.1482 51.9758 28.1924 52.1176 28.2209 52.263C28.2139 52.4062 28.22 52.5498 28.2389 52.692C28.2911 53.0179 28.3118 53.3481 28.3009 53.678C28.2919 53.878 28.4459 54.016 28.4389 54.197C28.4003 54.3753 28.3822 54.5575 28.3849 54.74C28.4239 54.9752 28.434 55.2143 28.4149 55.452C28.4089 55.667 28.4419 55.891 28.4339 56.112C28.3394 56.1767 28.2323 56.2208 28.1196 56.2413C28.0069 56.2618 27.8912 56.2583 27.7799 56.231C27.5678 56.19 27.3482 56.214 27.1499 56.3C27.0639 56.255 26.9499 56.142 26.8719 56.166C26.6719 56.231 26.4719 56.179 26.2719 56.232C26.1639 56.261 26.0569 56.297 25.9469 56.315C25.8846 56.3354 25.8178 56.3382 25.7541 56.3228C25.6903 56.3074 25.6321 56.2746 25.5859 56.228C25.5191 56.1613 25.4339 56.1162 25.3412 56.0984C25.2486 56.0806 25.1527 56.0909 25.0659 56.128C24.8749 56.179 24.7079 56.222 24.5279 56.268C24.4958 56.2793 24.4619 56.2847 24.4279 56.284C24.1889 56.245 23.9509 56.202 23.7049 56.159C23.596 56.2173 23.4827 56.2668 23.3659 56.307C23.2099 56.348 23.1659 56.161 23.0599 56.115C22.9059 56.133 22.7869 56.289 22.6289 56.176C22.6149 56.166 22.5829 56.157 22.5759 56.164C20.5999 56.388 22.459 56.563 20.5999 56.537C20.5437 56.5346 20.4874 56.5383 20.4319 56.548C20.1051 56.6303 19.7608 56.6087 19.4469 56.486C19.3962 56.4604 19.3381 56.4536 19.2829 56.467C19.0409 56.56 18.8059 56.455 18.5679 56.452C18.3459 56.452 18.1239 56.388 17.9009 56.388C17.6435 56.391 17.3861 56.38 17.1299 56.355C16.8299 56.32 16.5209 56.155 16.2079 56.319C16.1909 56.3259 16.1719 56.3259 16.1549 56.319C15.9199 56.212 15.6859 56.103 15.4419 55.99C15.4819 55.9054 15.5131 55.817 15.5349 55.726C15.5406 55.6325 15.5362 55.5386 15.5219 55.446C15.4929 55.132 15.4629 54.816 15.4299 54.5C15.3689 53.93 15.2969 53.361 15.2439 52.789C15.2119 52.436 15.2069 52.083 15.1879 51.728C15.2138 51.5044 15.1821 51.2779 15.0959 51.07C15.0559 51.002 15.0869 50.889 15.0959 50.798C15.1209 50.4855 15.1209 50.1715 15.0959 49.859C15.0779 49.7298 15.0799 49.5986 15.1019 49.47C15.1569 49.2925 15.1569 49.1025 15.1019 48.925C15.1812 48.6057 15.1866 48.2726 15.1179 47.951C15.2188 47.6274 15.215 47.2802 15.1069 46.959C15.0939 46.8671 15.0939 46.7739 15.1069 46.682C15.1247 46.2351 15.0952 45.7876 15.0189 45.347C14.9429 44.968 14.9989 44.567 14.8979 44.185C14.9935 43.5768 15.0154 45.9594 14.9629 45.346C14.9629 45.085 14.9529 44.824 14.9279 44.565C14.9279 44.493 14.9339 44.42 14.9379 44.35C14.9641 44.2412 14.9681 44.1283 14.9499 44.018C14.8964 43.8004 14.8692 43.5771 14.8689 43.353C14.8373 43.1355 14.8265 42.9155 14.8369 42.696C14.8429 42.42 14.7859 43.142 14.7759 42.864C14.782 42.7161 14.7977 42.5688 14.8229 42.423C14.8472 42.3144 14.8536 45.2026 14.8419 45.092C14.7809 44.8975 14.774 44.6901 14.8219 44.492C14.8346 44.3069 14.8184 44.1211 14.7739 43.941C14.7639 43.8472 14.7639 43.7527 14.7739 43.659C14.8193 43.4612 14.8527 43.2608 14.8739 43.059C14.8569 42.8747 14.8282 42.6916 14.7879 42.511C14.7618 42.3624 14.7809 45.2095 14.8429 45.072C15.3532 43.9175 14.5337 42.6812 14.9519 41.59C14.9829 41.4623 14.988 41.3297 14.9669 41.2V40.64C14.9639 40.4354 14.9469 40.2312 14.9159 40.029C14.8274 39.5956 14.8028 39.1515 14.8429 38.711C14.8949 38.345 14.8859 37.97 14.9579 37.601C15.0179 37.2413 14.9563 36.8718 14.7829 36.551C14.9339 36.335 15.0909 36.106 15.2539 35.881C15.4169 35.656 15.5999 35.446 15.7649 35.221Z" fill="#9F9F9F"/>
<path d="M31.1846 38.7247C31.1326 38.8317 31.3776 38.8497 31.2846 38.9877C31.3627 39.2364 31.3627 39.5031 31.2846 39.7517C31.2466 39.855 31.2466 39.9685 31.2846 40.0717C31.3068 40.1222 31.3187 40.1766 31.3196 40.2317C31.3098 40.3693 31.3155 40.5075 31.3366 40.6437C31.3596 40.7377 31.2026 40.7807 31.2836 40.8797C31.2196 41.1097 31.1356 41.3407 31.3156 41.5597C31.2476 41.6967 31.3846 41.8487 31.2796 41.9847C31.2481 42.0323 31.2298 42.0874 31.2267 42.1443C31.2235 42.2013 31.2356 42.258 31.2616 42.3088C31.3339 42.5199 31.3464 42.7469 31.2976 42.9647C31.2595 43.1089 31.2593 43.2605 31.2971 43.4047C31.335 43.549 31.4096 43.6809 31.5136 43.7878C31.5586 43.8288 31.5626 43.9217 31.5706 43.9877C31.5806 44.0787 31.5706 44.1737 31.5806 44.2647C31.5906 44.3557 31.5646 44.4577 31.6896 44.5137L31.8076 44.2277L32.8356 44.5277C33.2373 44.3896 33.6564 44.3088 34.0806 44.2878C34.4256 44.2668 34.7806 44.1067 35.1246 44.2817C35.2871 44.2676 35.4462 44.2271 35.5956 44.1618C35.6846 44.1058 35.6956 43.9328 35.7476 43.8148C35.8106 43.6718 35.7366 43.5287 35.7476 43.3937C35.7586 43.2587 35.8786 43.1327 35.9296 42.9937C35.956 42.9036 35.9662 42.8095 35.9596 42.7157C35.9546 42.4917 35.9406 42.2678 35.9296 42.0448C35.9187 41.9746 35.9156 41.9035 35.9206 41.8327C35.9486 41.6867 35.9946 41.5437 36.0286 41.3977C36.0407 41.2531 36.0447 41.1079 36.0406 40.9627C36.0946 40.5217 36.1016 40.0737 36.1276 39.6287C36.0276 39.4287 36.1356 39.2287 36.1456 39.0287C36.1335 38.8271 36.1379 38.6247 36.1586 38.4237C36.2586 37.9597 36.1276 37.7527 35.6786 37.5477C35.4601 37.4471 35.2549 37.3198 35.0676 37.1687C35.0556 37.0157 34.9456 37.0157 34.8296 37.0077C34.6813 36.9868 34.53 37.0086 34.3936 37.0707C34.3118 37.1127 34.2205 37.1327 34.1286 37.1287C33.961 37.1176 33.793 37.1449 33.6376 37.2087C33.3596 37.3087 33.0686 37.3807 32.7886 37.4797C32.5293 37.5932 32.2369 37.6061 31.9686 37.5157C31.7496 37.4347 31.5576 37.4877 31.4996 37.6837C31.4356 37.8997 31.2246 37.9217 31.1476 38.0477C31.1376 38.1642 31.1376 38.2813 31.1476 38.3977C31.1716 38.5067 31.2436 38.6067 31.1846 38.7247ZM21.2936 39.2167C21.0626 39.3777 21.3146 39.5897 21.2346 39.7707C21.1922 39.915 21.1982 40.0692 21.2516 40.2097C21.3531 40.6414 21.351 41.091 21.2456 41.5217C21.2218 41.6118 21.2274 41.7071 21.2616 41.7938C21.3166 41.9121 21.3439 42.0413 21.3416 42.1717C21.3406 42.2462 21.3508 42.3203 21.3716 42.3918C21.4089 42.4631 21.4538 42.5301 21.5056 42.5917L21.3916 42.6917C21.3996 42.8917 21.5386 42.8288 21.6466 42.8428L21.7246 43.3307C21.4176 43.5827 21.1896 43.8657 21.4836 44.2557C21.5909 44.2589 21.6975 44.2736 21.8016 44.2997C21.9032 44.3469 22.0008 44.4021 22.0936 44.4647C22.2496 44.5799 22.4293 44.6586 22.6196 44.6953C22.8099 44.732 23.0061 44.7257 23.1936 44.6768C23.3025 44.6498 23.4146 44.6387 23.5266 44.6437C23.8606 44.6297 24.1956 44.6198 24.5576 44.6068L24.8776 44.7938L25.6006 44.3857C25.6286 44.2407 25.7056 44.0857 25.6636 43.9937C25.5856 43.8157 25.7236 43.6618 25.6636 43.5028C25.6134 43.3407 25.6248 43.1659 25.6956 43.0117C25.7116 42.9657 25.6786 42.9037 25.6756 42.8487C25.6671 42.3806 25.6338 41.9133 25.5756 41.4487C25.5246 40.9839 25.5022 40.5163 25.5086 40.0487C25.5319 39.5289 25.4973 39.008 25.4056 38.4957C25.3923 38.4141 25.3612 38.3365 25.3143 38.2684C25.2674 38.2002 25.2061 38.1433 25.1346 38.1017C24.9186 37.9917 24.6836 37.9197 24.4656 37.8137C24.2478 37.7379 24.0146 37.7166 23.7866 37.7517C23.4866 37.7587 23.1866 37.7927 22.8926 37.8097C22.6314 37.7894 22.3688 37.8189 22.1186 37.8967C21.9915 37.9263 21.8599 37.9321 21.7306 37.9137C21.6196 37.9137 21.5076 37.9037 21.3976 37.9137C21.3496 37.9197 21.2706 37.9627 21.2646 37.9977C21.2246 38.2547 20.9716 38.4317 21.0026 38.7117C21.2106 38.8197 21.1436 39.0817 21.2936 39.2167Z" fill="black"/>
</svg>
