<svg height="64" viewBox="0 0 64 64" width="64" xmlns="http://www.w3.org/2000/svg" xmlns:xlink="http://www.w3.org/1999/xlink"><linearGradient id="a"><stop offset="0" stop-color="#6dc7ff"/><stop offset="1" stop-color="#e6abff"/></linearGradient><linearGradient id="b" gradientUnits="userSpaceOnUse" x1="15" x2="15" xlink:href="#a" y1="53.809" y2="55.834"/><linearGradient id="c" gradientUnits="userSpaceOnUse" x1="49" x2="49" xlink:href="#a" y1="53.809" y2="55.834"/><linearGradient id="d"><stop offset="0" stop-color="#1a6dff"/><stop offset="1" stop-color="#c822ff"/></linearGradient><linearGradient id="e" gradientUnits="userSpaceOnUse" x1="31.998" x2="31.998" xlink:href="#d" y1="1.128" y2="57.268"/><linearGradient id="f" gradientUnits="userSpaceOnUse" x1="49" x2="49" xlink:href="#d" y1="1.128" y2="57.268"/><linearGradient id="g" gradientUnits="userSpaceOnUse" x1="32" x2="32" xlink:href="#d" y1="1.128" y2="57.268"/><linearGradient id="h" gradientUnits="userSpaceOnUse" x1="15" x2="15" xlink:href="#d" y1="1.128" y2="57.268"/><path d="m10 53h10v4h-10z" fill="url(#b)"/><path d="m44 53h10v4h-10z" fill="url(#c)"/><path d="m58 32.9c0-.7-.4-1.4-1-1.7l-12-6.9v-3c.3 0 .7-.1 1-.3.6-.4 1-1 1-1.7v-2.8c0-.7-.4-1.4-1-1.8l-11.4-6.3c-.5-.3-1-.5-1.6-.6v-3.8h2v-2h-2v-2h-2v2h-2v2h2v3.8c-.5.1-1.1.3-1.6.6l-11.5 6.8c-.6.4-1 1-1 1.7v2.4c0 .7.4 1.4 1 1.7.3.2.6.3 1 .3v2.8l-11.9 7.1c-.6.4-1 1-1 1.7v2.2c0 .7.4 1.4 1 1.7.3.2.7.3 1 .3s.7-.1 1-.3v19.2h-2v2h50v-2h-2v-19.2c.3.2.6.3 1 .3.3 0 .7-.1 1-.3.6-.4 1-1 1-1.7zm-39-13.5v-2.4l11.5-6.8c.5-.3 1-.4 1.5-.4s1.1.1 1.6.4l11.4 6.3v2.8l-12-7.1c-.6-.4-1.4-.4-2.1 0zm-11 15.7v-2.2l11-6.4v2.3zm3 .6 8-4.5v20.8h-8zm0 20.3v-2h8v2zm18 0v-10h6v10zm6-12h-6v-1c0-.6.4-1 1-1h4c.6 0 1 .4 1 1zm2 12v-13c0-1.7-1.3-3-3-3h-4c-1.7 0-3 1.3-3 3v13h-6v-2h4v-2h-4v-2h2v-2h-2v-27.5l11-6.6 11 6.5v27.6h-2v2h2v2h-4v2h4v2zm16 0h-8v-2h8zm0-4h-8v-20.9l8 4.5zm-8-23.2v-2.3l11 6.4v2.2z" fill="url(#e)"/><path d="m48 37h2v11h-2z" fill="url(#f)"/><path d="m32 21.2c-2.2 0-4 1.8-4 4v7.8h8v-7.8c0-2.2-1.8-4-4-4zm2 9.8h-4v-5.8c0-1.1.9-2 2-2s2 .9 2 2z" fill="url(#g)"/><path d="m14 37h2v11h-2z" fill="url(#h)"/></svg>