<svg width="168" height="60" viewBox="0 0 168 60" fill="none" xmlns="http://www.w3.org/2000/svg">
<path d="M31.6 51.348C31.6 51.348 16.469 28.781 14.5 22.96C12.531 17.139 11.811 8.81097 15.841 8.27397C19.871 7.73697 27.483 23.674 27.483 23.674C27.483 23.674 36.8 3.88597 43.423 5.22897C50.046 6.57197 41.005 27.617 38.856 32.99C36.707 38.363 31.6 51.348 31.6 51.348Z" fill="#F65058"/>
<path d="M32.3049 56.4359C31.7049 56.3429 31.2649 56.3119 30.8459 56.2009C30.7038 56.1832 30.5673 56.1343 30.4462 56.0579C30.3251 55.9814 30.2222 55.8793 30.145 55.7586C30.0678 55.638 30.0181 55.5018 29.9994 55.3598C29.9807 55.2178 29.9935 55.0735 30.0369 54.9369C30.6039 53.0759 29.4269 51.8259 28.5149 50.5279C27.7074 49.4661 26.8428 48.4489 25.9249 47.4809C24.5989 45.9699 23.2349 44.4909 21.9389 42.9549C21.3402 42.2985 20.9337 41.49 20.7639 40.6179C20.4916 39.7072 19.9749 38.8886 19.2699 38.2509C17.2513 36.0788 15.63 33.569 14.4799 30.8359C13.7799 29.2629 13.5399 27.4479 12.6739 25.9909C11.3899 23.8279 11.1089 21.4589 10.7429 19.1139C10.3765 16.7421 10.1903 14.3459 10.1859 11.9459C10.1233 11.042 10.3523 10.1417 10.8392 9.3775C11.3261 8.61326 12.0452 8.02529 12.8909 7.69995C14.1597 7.00406 15.5383 6.53055 16.9669 6.29995C18.4941 6.25025 19.9844 6.77556 21.1429 7.77195C22.3865 8.62088 23.4064 9.75783 24.1159 11.0859C24.6049 12.0859 25.2749 13.0059 25.7779 14.0039C26.4279 15.2949 26.9909 16.6299 27.5919 17.9459L28.1699 19.2139L28.5399 19.1789C28.8569 18.2439 29.2169 17.3209 29.4839 16.3719C30.7129 11.9969 33.5529 8.84095 37.0999 6.22995C39.2957 4.54683 41.9745 3.61428 44.7409 3.56995C46.3259 3.58547 47.84 4.22924 48.9509 5.35995C49.285 5.66324 49.5202 6.06 49.626 6.49868C49.7317 6.93737 49.7031 7.39772 49.5439 7.81995C48.6829 10.9479 48.0969 14.1749 46.9659 17.1989C45.4259 21.3159 44.7739 25.7719 42.5109 29.5989C40.8869 32.5944 39.6488 35.7834 38.8259 39.0899C38.6259 39.7759 38.1739 40.3829 37.9179 41.0569C37.1298 43.5543 36.1948 46.0029 35.1179 48.3899C33.9127 50.9708 32.9703 53.6664 32.3049 56.4359ZM31.7479 49.3799L32.1239 49.5309C32.496 48.8806 32.8299 48.2091 33.1239 47.5199C33.7019 45.9479 34.1939 44.3439 34.7439 42.7609C35.1439 41.6139 35.6869 40.5059 35.9789 39.3339C36.5999 36.8429 37.0929 34.3209 37.6519 31.8139C37.7483 30.8732 37.9927 29.9535 38.3759 29.0889C39.0089 28.0589 38.9189 26.9429 39.1889 25.8799C39.2889 25.4669 39.0819 24.9679 39.2009 24.5629C40.3739 20.5709 40.7919 16.4339 41.6149 12.3759C41.9409 10.7699 41.6239 9.21795 41.6069 7.31895C40.7619 7.84995 40.1459 8.19295 39.5779 8.60195C37.7571 10.0201 36.3145 11.8656 35.3779 13.9749C33.8689 17.0199 32.1689 19.9999 31.9389 23.5269C31.8906 24.3679 31.7222 25.1977 31.4389 25.9909C31.2432 26.6221 30.8546 27.176 30.3279 27.5749C29.9274 27.8232 29.4771 27.9799 29.009 28.0339C28.5409 28.0879 28.0667 28.0379 27.6202 27.8875C27.1737 27.737 26.7659 27.4898 26.426 27.1635C26.0861 26.8372 25.8225 26.4399 25.6539 25.9999C25.0339 24.4999 24.5439 22.9489 23.8859 21.4699C23.2042 19.9341 22.4484 18.4324 21.6209 16.9699C20.3768 14.7815 19.0858 12.62 17.7489 10.4869C17.3542 10.0115 16.9036 9.58544 16.4069 9.21795C15.6646 10.323 15.2914 11.6347 15.3409 12.9649C15.5809 16.4769 15.7459 20.0309 17.4459 23.2649C17.8099 23.9569 18.0779 24.6989 18.4119 25.4079C19.5729 27.8719 20.4419 30.5009 22.5409 32.4289C22.8846 32.8674 23.1493 33.3625 23.3229 33.8919C23.8974 35.224 24.5399 36.5257 25.2479 37.7919C26.0899 39.1369 27.4479 40.1609 27.5709 41.9359C27.5919 42.2519 27.9979 42.5629 28.2659 42.8359C29.4279 44.0229 30.7239 45.1119 31.1509 46.8269C31.3689 47.6689 31.5509 48.5269 31.7509 49.3819L31.7479 49.3799Z" fill="black"/>
<path d="M87.367 53.2899C87.367 53.2899 73.991 39.6899 71.821 27.8309C69.651 15.9719 68.827 8.99995 71.821 8.99995C74.815 8.99995 84.04 23.6549 84.04 23.6549C84.04 23.6549 90.825 4.53095 97.13 6.35495C103.435 8.17895 94.48 37.4659 87.367 53.2899Z" fill="#FFCB11"/>
<path d="M84.3829 19.164C85.2259 17.707 86.0049 16.528 86.6179 15.264C88.6144 11.4412 91.1766 7.94176 94.2179 4.88397C95.5265 3.55333 97.1778 2.61057 98.9889 2.15997C100.989 1.52797 102.066 2.18697 102.689 4.17397C103.373 6.36763 103.617 8.67477 103.407 10.963C103.135 14.148 102.822 17.332 102.383 20.497C102.085 22.0991 101.699 23.6835 101.226 25.243C100.908 26.8407 100.485 28.4155 99.9579 29.957C99.1029 32.072 98.4489 34.257 97.6109 36.372C95.6459 41.342 93.3359 46.218 93.0019 51.686C92.9813 52.2761 92.8838 52.861 92.7119 53.426C92.4998 54.0311 92.4345 54.6779 92.5215 55.3132C92.6084 55.9485 92.845 56.5541 93.2119 57.08C92.9954 57.3185 92.7494 57.5285 92.4799 57.705C90.6242 58.522 88.5745 58.7942 86.5699 58.49C85.3999 58.354 84.2529 57.147 83.3079 56.208C82.5258 55.254 81.8076 54.2495 81.1579 53.201C80.2912 52.0716 79.3809 50.9756 78.4269 49.913C76.1473 47.2945 74.3581 44.2868 73.1449 41.034C72.1659 38.547 70.9579 36.149 70.0059 33.653C68.9131 30.7174 68.1922 27.6566 67.8599 24.542C67.7541 23.641 67.5687 22.7512 67.3059 21.883C66.9009 20.594 66.7648 19.2357 66.9059 17.892C67.0163 16.0245 66.8896 14.1506 66.5289 12.315C66.3676 11.5727 66.4622 10.7977 66.7974 10.1161C67.1326 9.43452 67.6886 8.8864 68.3749 8.56097C69.6909 7.81197 70.8109 6.55097 72.6049 6.87497C74.3529 7.19097 76.1179 7.42497 77.4729 8.71797C77.9931 9.21164 78.4517 9.76632 78.8389 10.37C80.3389 12.729 81.7849 15.118 83.2589 17.492C83.5579 17.977 83.8909 18.436 84.3829 19.164ZM86.5299 49.48C86.8459 47.245 87.0939 45.444 87.3569 43.646C87.774 40.5379 88.7293 37.5262 90.1799 34.746C91.136 32.9647 91.881 31.0779 92.3999 29.124C93.3206 24.9338 94.5722 20.8232 96.1429 16.831C96.236 16.5858 96.2758 16.3237 96.2599 16.062C96.2239 14.831 96.1479 13.601 96.1209 12.37C96.1079 11.77 96.1689 11.17 96.2119 10.214C95.4919 10.599 95.0009 10.706 94.7739 11.014C93.7789 12.1448 92.9349 13.4 92.2629 14.748C90.7249 18.623 89.3769 22.576 88.0359 26.526C87.5609 27.926 87.1419 28.384 85.6629 28.159C84.4413 27.9502 83.2329 27.6704 82.0439 27.321C81.6635 27.2199 81.3291 26.992 81.0959 26.675C80.3106 25.6368 79.6862 24.4862 79.2439 23.262C78.3169 19.472 76.0089 16.434 74.1049 13.172C73.8956 12.7696 73.592 12.4239 73.22 12.1645C72.848 11.905 72.4188 11.7394 71.9689 11.682C71.4689 13.182 72.3589 23.216 73.2479 26.232C75.7701 34.9245 80.3226 42.8928 86.5299 49.48Z" fill="black"/>
<path d="M144.155 54.964C144.155 54.964 126.145 26.564 124.677 14.353C123.209 2.14203 126.677 2.28403 129.763 2.29303C132.849 2.30203 139.938 22.33 139.938 22.33C139.938 22.33 144.238 1.96503 151.462 3.65303C158.686 5.34103 144.155 54.964 144.155 54.964Z" fill="#036DCE"/>
<path d="M147.185 59.023C146.899 59.0031 146.622 58.9206 146.371 58.7813C146.121 58.642 145.905 58.4494 145.737 58.217C145.442 57.913 145.105 57.6518 144.737 57.441C144.591 57.3586 144.452 57.2661 144.319 57.164C143.467 56.29 142.622 55.4097 141.784 54.523C141.616 54.3121 141.462 54.0903 141.323 53.859C141.123 53.582 140.983 53.213 140.716 53.052C139.435 52.281 138.942 50.903 138.106 49.791C137.762 49.335 137.33 48.939 137.032 48.458C136.786 48.0616 136.622 47.6194 136.551 47.158C136.54 46.8729 136.45 46.5964 136.293 46.3585C136.135 46.1207 135.915 45.9306 135.657 45.809C135.242 45.5133 134.894 45.1325 134.637 44.692C134.085 43.9587 133.554 43.2084 133.043 42.441C132.719 41.9613 132.432 41.4571 132.186 40.933C131.921 40.353 131.83 39.664 130.998 39.571C130.898 39.56 130.731 39.271 130.764 39.171C130.979 38.498 130.364 38.114 130.238 37.563C130.213 37.451 130.006 37.384 129.891 37.286C129.746 37.163 129.533 37.052 129.485 36.895C129.415 36.3962 129.201 35.9284 128.871 35.548C128.762 35.448 128.912 35.064 128.941 34.823C128.581 34.315 128.204 33.801 127.849 33.272C127.74 33.11 127.587 32.879 127.631 32.732C127.82 32.104 127.519 31.795 127.02 31.518C126.787 31.3831 126.602 31.1786 126.491 30.933C125.779 29.6623 125.199 28.3219 124.76 26.933C124.677 26.533 124.26 26.192 124.483 25.688C124.514 25.619 124.454 25.432 124.397 25.414C123.728 25.19 123.864 24.539 123.67 24.068C123.158 22.821 122.621 21.582 122.17 20.314C121.966 19.631 121.806 18.9351 121.694 18.231C121.682 17.9945 121.644 17.7599 121.583 17.531C121.083 16.455 121.266 15.231 120.889 14.161C120.613 13.1014 120.438 12.0178 120.368 10.925C120.258 10.212 120.536 9.51103 120.213 8.79003C119.875 8.03703 120.301 7.24303 120.513 6.50903C120.722 5.80203 121.181 5.17303 121.439 4.47603C121.884 3.59772 122.484 2.80726 123.21 2.14303C123.874 1.48722 124.767 1.11563 125.7 1.10703C127.083 0.945071 128.48 0.934006 129.866 1.07403C131.41 1.24783 132.824 2.01882 133.806 3.22203C133.844 3.27917 133.888 3.33185 133.937 3.37903C134.826 4.1291 135.477 5.12191 135.81 6.23603C136.154 7.10903 136.56 7.95803 136.888 8.83603C137.528 10.552 138.158 12.272 138.741 14.007C139 14.779 139.13 15.594 139.327 16.387C139.375 16.577 139.456 16.758 139.616 17.211C139.813 16.7974 139.987 16.3735 140.138 15.941C140.715 13.7293 141.55 11.5933 142.627 9.57703C143.174 8.40818 143.828 7.29299 144.582 6.24603C145.707 4.70041 147.235 3.49406 149 2.75903C149.672 2.51862 150.387 2.42745 151.098 2.49187C151.808 2.55628 152.496 2.77474 153.113 3.13203C153.612 3.43241 154.046 3.82872 154.39 4.29802C154.734 4.76733 154.982 5.30029 155.119 5.86603C155.59 7.33669 155.863 8.86338 155.932 10.406C156.069 11.8524 156.023 13.3103 155.794 14.745C155.523 16.2075 155.343 17.6853 155.255 19.17C155.185 19.931 154.718 20.637 154.955 21.443C154.975 21.511 154.79 21.632 154.713 21.738C154.613 21.872 154.429 22.038 154.451 22.152C154.464 23.075 154.279 23.99 153.907 24.835C153.893 24.9 153.831 24.98 153.852 25.021C154.333 25.951 153.64 26.793 153.66 27.693C153.666 27.961 153.645 28.229 153.635 28.493C153.667 28.7221 153.654 28.9551 153.596 29.179C153.181 30.3284 152.957 31.5381 152.933 32.76C152.918 32.86 152.964 32.986 152.919 33.06C152.071 34.526 152.466 36.221 152.04 37.76C152.005 37.9273 151.951 38.09 151.879 38.245C151.578 38.9614 151.36 39.7099 151.229 40.476C151.108 41.019 151.366 41.745 150.623 42.084C150.562 42.143 150.518 42.2164 150.493 42.2973C150.468 42.3783 150.465 42.4642 150.482 42.547C150.782 43.277 150.29 43.922 150.282 44.621C150.282 44.95 149.995 45.271 149.856 45.603C149.609 46.4802 149.521 47.3948 149.597 48.303C149.575 48.803 149.67 49.538 149.391 49.755C148.661 50.326 148.821 51.091 148.609 51.783C148.544 51.9473 148.513 52.1228 148.516 52.2994C148.519 52.476 148.557 52.6502 148.628 52.812C148.685 52.9695 148.704 53.1378 148.686 53.3041C148.667 53.4704 148.61 53.6301 148.52 53.771C147.781 54.571 147.92 55.619 147.663 56.545C147.432 57.355 147.339 58.193 147.185 59.023ZM140.6 27.471C139.977 27.271 139.3 27.084 138.658 26.825C138.206 26.6777 137.83 26.3597 137.609 25.9388C137.388 25.518 137.341 25.0275 137.476 24.572C137.509 24.2759 137.518 23.9776 137.502 23.68C137.43 22.6283 137.185 21.5957 136.776 20.624C136.019 18.299 135.344 15.947 134.618 13.612C134.447 13.062 134.194 12.539 133.998 11.996C133.419 10.396 132.798 8.81303 132.298 7.19603C131.959 6.23798 131.417 5.36466 130.708 4.63603C130.41 4.31085 130.054 4.04339 129.659 3.84703C129.53 3.76006 129.384 3.69993 129.232 3.67023C129.079 3.64052 128.921 3.64185 128.769 3.67412C128.616 3.70639 128.472 3.76895 128.344 3.85809C128.217 3.94723 128.108 4.06113 128.025 4.19303C127.137 5.14794 126.621 6.38989 126.571 7.69303C126.696 9.92919 126.968 12.1547 127.386 14.355C127.44 14.755 127.686 15.116 127.779 15.511C128.438 18.0057 129.297 20.4432 130.347 22.8C130.805 23.9 131.29 24.988 131.73 26.1C132.208 27.3 132.63 28.524 133.109 29.726C133.588 30.928 134.077 32.113 134.593 33.293C135.109 34.473 135.61 35.674 136.217 36.813C137.117 38.493 138.145 40.102 139.033 41.786C140.146 43.895 141.133 46.072 142.253 48.174C142.953 49.474 143.803 50.696 144.708 52.146C144.721 51.5436 144.804 50.9446 144.954 50.361C145.654 48.673 145.586 46.849 145.97 45.105C146.198 43.5226 146.549 41.9605 147.021 40.433C147.322 39.4641 147.529 38.4685 147.64 37.46C147.84 36.365 147.999 35.26 148.187 34.166C148.22 34.0357 148.279 33.9131 148.359 33.805C148.741 33.231 148.68 32.483 149.14 31.921C149.287 31.742 149.181 31.349 149.177 31.053C149.17 30.653 148.994 30.161 149.167 29.874C149.451 29.2328 149.571 28.5312 149.517 27.832C149.673 25.939 150.308 24.126 150.425 22.224C150.48 21.5192 150.595 20.8203 150.769 20.135C150.979 19.252 151.261 18.386 151.504 17.511C151.517 17.4112 151.514 17.3098 151.494 17.211C151.424 16.22 151.843 15.252 151.637 14.253C151.631 14.223 151.655 14.187 151.657 14.153C151.757 12.443 152.309 10.779 152.02 9.02203C151.891 8.04852 151.612 7.10091 151.192 6.21303C150.785 5.41303 150.492 5.29103 149.628 5.57303C148.451 5.95155 147.443 6.72979 146.779 7.77303C146.098 8.87174 145.496 10.018 144.979 11.203C144.16 12.9653 143.56 14.8211 143.192 16.729C142.823 18.737 142.325 20.722 141.883 22.717C141.675 23.3261 141.543 23.9586 141.49 24.6C141.575 25.636 141.256 26.6648 140.6 27.471Z" fill="black"/>
</svg>
