<svg width="167" height="64" viewBox="0 0 167 64" fill="none" xmlns="http://www.w3.org/2000/svg">
<path d="M44.8799 22.2047C44.0266 22.4938 43.1487 22.6773 42.2879 22.9301C40.8983 23.2737 39.4497 23.3043 38.0468 23.0197C35.553 22.6421 32.9055 19.8815 32.9642 17.473C32.9304 16.4665 32.8321 15.4632 32.6698 14.4693L32.4031 14.4298C32.2431 14.8309 32.0831 15.2298 31.9263 15.633C31.393 17.0303 30.8778 18.4373 30.3263 19.8261C29.3876 22.1727 27.9391 24.3359 27.7194 26.9503C27.6864 27.1756 27.6115 27.3927 27.4986 27.5903C27.3844 27.8697 27.1955 28.1123 26.9526 28.2914C26.7097 28.4705 26.4221 28.5793 26.1215 28.6058C24.114 28.7701 22.1012 28.8917 20.1034 29.1317C18.6239 29.3098 17.1647 29.649 15.6948 29.9135C15.3654 29.965 15.0615 30.1214 14.8281 30.3595C14.5948 30.5977 14.4446 30.9048 14.3999 31.2351C15.2495 32.109 16.3018 32.7594 17.4634 33.1285C19.4796 33.8626 21.1589 35.3068 22.1866 37.1903C22.0825 37.6161 21.9481 38.0339 21.7844 38.4405C21.5646 38.8296 21.3213 39.2051 21.0559 39.5647C20.5727 40.3221 20.0362 41.0517 19.6287 41.8485C18.4098 44.2544 17.2147 46.6723 16.0436 49.1018C15.9071 49.3823 15.5924 49.7173 16.1151 50.1685C17.8591 48.6698 19.6468 47.1925 21.3663 45.6383C22.7785 44.2945 24.2865 43.0549 25.8783 41.9295C26.5589 41.458 27.3483 41.1674 28.1722 41.0853C28.9961 41.0032 29.8274 41.1322 30.5876 41.4602C31.7186 41.8693 32.8004 42.4031 33.8132 43.0517C35.9348 44.4554 37.9732 45.9807 40.0639 47.4421C40.731 47.9277 41.4255 48.3747 42.1439 48.7807C42.2935 48.8609 42.4631 48.8959 42.6322 48.8814C42.8013 48.867 42.9626 48.8037 43.0964 48.6993C43.2302 48.5948 43.3307 48.4538 43.3858 48.2933C43.441 48.1328 43.4483 47.9597 43.4068 47.7951C43.2458 46.6858 43.0143 45.5861 42.8607 44.4767C42.434 41.4346 41.474 38.4746 41.5199 35.361C41.5847 34.1567 41.3624 32.9543 40.8714 31.8527C40.6242 31.3379 40.5479 30.7576 40.6536 30.1964C40.7593 29.6351 41.0416 29.1224 41.4591 28.7327C41.9157 28.2345 42.3981 27.7606 42.9044 27.313C44.5268 25.8655 46.1738 24.4458 47.7855 22.9855C48.0703 22.7263 48.5898 22.4522 48.1972 21.8986C47.084 21.7022 45.9384 21.808 44.8799 22.2047Z" fill="#F65058"/>
<path d="M50.7393 18.785C48.5648 18.6283 46.3803 18.6797 44.2155 18.9386C42.5101 19.2025 40.7904 19.3635 39.0657 19.4208C37.039 19.52 36.3371 18.8128 36.2753 16.8213C36.2678 16.5962 36.2859 16.3712 36.2987 16.1461C36.3913 13.4488 36.0565 10.7537 35.3067 8.16104C34.3595 7.87495 33.3767 7.72342 32.3873 7.7109C31.9377 7.63519 31.4756 7.70369 31.0673 7.90659C30.659 8.1095 30.3254 8.43641 30.1142 8.8405C29.8457 9.29196 29.6049 9.75931 29.3931 10.24C28.7329 11.6693 28.031 13.0826 27.4518 14.545C26.636 16.2192 25.9999 17.9752 25.5542 19.7834C25.2882 20.9097 24.9399 22.0149 24.5121 23.0901C23.2461 23.4985 21.9181 23.6812 20.5889 23.6298C20.1439 23.6338 19.6997 23.6695 19.2598 23.7365C18.308 23.9259 17.3423 24.0372 16.3723 24.0693C14.7018 24.0456 13.0862 24.6663 11.8614 25.8026C11.2898 26.2373 10.8832 26.8538 10.7087 27.5504C10.5342 28.247 10.6022 28.9823 10.9014 29.6352C11.3934 30.6451 12.0413 31.5713 12.8214 32.3797C13.6142 33.4891 14.7693 34.287 16.0875 34.6357C16.6454 34.7989 17.1723 35.072 17.9787 35.4037C17.485 36.8361 16.8731 38.2251 16.1494 39.5562C14.995 41.5601 13.9965 43.6498 13.1627 45.8069C12.6199 47.2802 12.2404 48.8087 12.031 50.3648C11.942 50.7326 11.9516 51.1173 12.0587 51.4802C12.1658 51.8432 12.3667 52.1714 12.6411 52.432C13.1638 52.9536 13.6011 53.5584 14.0854 54.1386C14.8395 54.0416 15.5019 53.9488 16.1665 53.8752C17.2953 53.7351 18.3501 53.2389 19.1777 52.4586C21.3622 50.5098 23.5382 48.5504 25.7334 46.6133C26.687 45.7706 27.6833 44.976 28.6529 44.1514C28.7721 44.0297 28.9144 43.933 29.0714 43.8669C29.2285 43.8009 29.3972 43.7669 29.5675 43.7669C29.7379 43.7669 29.9066 43.8009 30.0636 43.8669C30.2207 43.933 30.363 44.0297 30.4822 44.1514C31.1222 44.6709 31.7622 45.201 32.4022 45.7258C34.6902 47.6803 37.1846 49.3792 39.8411 50.7925C41.4081 51.5936 43.0155 52.1333 44.8342 51.3098C45.6452 49.9774 46.0901 48.4544 46.1238 46.8949C45.9953 43.8247 45.4704 40.7841 44.5622 37.8485C44.1384 36.3323 43.8092 34.7912 43.5766 33.2341C46.9334 29.6586 50.9633 27.0602 54.8267 24.2666C55.0301 23.6872 55.0929 23.0678 55.01 22.4593C54.9271 21.8509 54.7009 21.2708 54.3499 20.7669C53.9333 20.1889 53.393 19.7111 52.7684 19.3683C52.1438 19.0255 51.4506 18.8262 50.7393 18.785ZM47.7867 22.9866C46.175 24.4469 44.5281 25.8666 42.9057 27.3141C42.3994 27.7617 41.9169 28.2356 41.4603 28.7338C41.0419 29.1229 40.7591 29.6357 40.6533 30.1972C40.5476 30.7586 40.6244 31.3392 40.8726 31.8538C41.3637 32.9554 41.586 34.1578 41.5211 35.3621C41.471 38.4757 42.4385 41.4357 42.8619 44.4778C43.0155 45.5872 43.247 46.6869 43.4081 47.7962C43.4495 47.9608 43.4422 48.1339 43.3871 48.2944C43.332 48.4549 43.2314 48.5959 43.0976 48.7004C42.9638 48.8048 42.8026 48.8681 42.6335 48.8825C42.4644 48.897 42.2947 48.862 42.1451 48.7818C41.4255 48.3758 40.7299 47.9285 40.0619 47.4421C37.9755 45.9797 35.9329 44.4554 33.807 43.0485C32.7962 42.4003 31.7165 41.8666 30.5878 41.457C29.8275 41.1292 28.9963 41.0002 28.1724 41.0823C27.3485 41.1644 26.5591 41.4549 25.8785 41.9264C24.2862 43.0512 22.7782 44.2908 21.3665 45.6352C19.647 47.1893 17.8593 48.6666 16.1153 50.1653C15.5926 49.7141 15.9019 49.3792 16.0438 49.0986C17.2123 46.6678 18.4074 44.2499 19.6289 41.8453C20.0363 41.0485 20.5729 40.3189 21.0561 39.5616C21.3202 39.2011 21.5635 38.8257 21.7846 38.4373C21.9506 38.0316 22.0851 37.6136 22.1867 37.1872C21.1597 35.3034 19.4807 33.8591 17.4646 33.1253C16.3027 32.7564 15.25 32.106 14.4001 31.232C14.4428 30.9006 14.5919 30.5921 14.8251 30.3528C15.0582 30.1135 15.3627 29.9564 15.6929 29.905C17.1627 29.6405 18.6219 29.3013 20.1014 29.1232C22.0993 28.8832 24.1121 28.7616 26.1195 28.5973C26.4202 28.571 26.7079 28.4623 26.9508 28.2832C27.1938 28.104 27.3826 27.8613 27.4966 27.5818C27.6089 27.3858 27.6838 27.1706 27.7174 26.9472C27.9371 24.3328 29.3857 22.1717 30.3243 19.8229C30.8801 18.4362 31.391 17.0272 31.9243 15.6298C32.0779 15.2266 32.2443 14.8277 32.4011 14.4266L32.6678 14.4661C32.8312 15.4599 32.9295 16.4633 32.9622 17.4698C32.9035 19.8826 35.551 22.6432 38.0449 23.0165C39.448 23.2984 40.896 23.2678 42.2859 22.9269C43.1467 22.6741 44.0299 22.4906 44.8779 22.2016C45.9343 21.8034 47.0786 21.698 48.1899 21.8965C48.5846 22.4576 48.0651 22.7274 47.7867 22.9866Z" fill="black"/>
<path d="M146.368 26.3606C143.731 26.7983 141.284 25.4646 140.737 22.8363C140.454 21.6346 140.312 20.4039 140.314 19.1692C140.395 16.484 139.628 13.9351 139.265 11.3227C139.176 11.0555 139.062 10.7973 138.924 10.5518C138.394 11.7581 137.934 12.994 137.547 14.2534C137.226 15.56 137.152 16.9255 136.95 18.2667C136.792 19.3083 136.588 20.3443 136.43 21.3868C136.21 22.8195 136.036 24.2652 135.793 25.6951C135.751 26.042 135.573 26.3582 135.299 26.5752C134.402 27.1245 133.43 27.5422 132.414 27.8156C129.971 28.2027 127.603 28.9642 125.392 30.0734C124.459 30.5699 124.33 30.9899 124.934 31.8392C125.124 32.1386 125.387 32.3844 125.698 32.5532C127.589 33.3792 129.507 34.1399 131.4 34.965C132.16 35.294 132.895 35.6799 133.597 36.1195C133.691 36.1797 133.772 36.2581 133.835 36.3501C133.897 36.4422 133.941 36.546 133.963 36.6553C133.985 36.7646 133.985 36.8772 133.962 36.9864C133.94 37.0955 133.896 37.1991 133.832 37.2908C133.441 38.0813 133.105 38.8984 132.829 39.7362C131.848 42.9832 130.91 46.2452 129.969 49.5044C129.848 49.9235 129.797 50.364 129.713 50.7943C130.759 49.8376 130.725 48.265 132.034 47.5734C132.105 47.537 132.086 47.3372 132.114 47.215C132.134 46.9813 132.192 46.7525 132.286 46.5374C133.299 44.9432 134.339 43.364 135.366 41.7774C135.545 41.5935 135.68 41.3712 135.761 41.1274C135.842 40.8835 135.866 40.6245 135.832 40.3699C135.815 40.2252 135.826 40.0784 135.866 39.9381C135.905 39.7979 135.973 39.6669 136.063 39.5528C136.154 39.4388 136.267 39.3439 136.394 39.2738C136.522 39.2037 136.663 39.1597 136.808 39.1444C137.541 38.982 138.263 38.745 139.004 38.6479C139.462 38.5427 139.943 38.6025 140.362 38.817C140.781 39.0314 141.111 39.3866 141.293 39.8202C141.551 40.3802 141.853 40.9196 142.133 41.4731C143.154 43.5264 144.11 45.6143 145.213 47.62C145.902 48.7337 146.655 49.8058 147.47 50.8307C147.542 49.5024 147.502 48.1705 147.349 46.8491C147.266 46.3583 147.208 45.8636 147.174 45.367C147.042 44.3392 146.75 43.3383 146.311 42.3999C145.82 40.7498 145.378 39.0866 144.885 37.4364C144.815 37.0511 144.643 36.6917 144.386 36.3958C144.056 36.1331 143.825 35.7663 143.73 35.3553C143.635 34.9443 143.682 34.5132 143.864 34.1324C143.949 33.8702 144.013 33.4539 143.874 33.2924C143.238 32.5644 143.656 32.0968 144.128 31.6572C144.888 31.7741 145.666 31.7027 146.392 31.4492C147.119 31.1956 147.772 30.7678 148.294 30.2031C149.414 29.1531 150.636 28.2095 150.358 26.4427C148.953 25.6951 147.661 26.1468 146.368 26.3606Z" fill="#036DCE"/>
<path d="M155.733 25.8266C155.054 25.3488 154.264 25.0324 153.559 24.5862C152.127 23.6971 150.474 23.2276 148.789 23.231C147.774 23.2142 146.76 23.231 145.724 23.231C145.617 23.0581 145.529 22.8745 145.461 22.6832C145.274 21.4241 145.115 20.1632 144.901 18.906C144.807 18.3656 144.428 17.8261 144.486 17.3193C144.548 15.8233 144.379 14.3268 143.985 12.8822C143.456 10.1196 142.816 7.37555 142.519 4.57555C142.416 3.94286 142.12 3.35743 141.672 2.89945C141.223 2.44146 140.644 2.13334 140.014 2.01729C139.397 1.94169 137.572 2.65289 137.577 3.11209C137.586 4.04542 136.816 4.46635 136.521 5.16542C135.666 6.88971 135.119 8.75014 134.905 10.6628C134.893 10.8737 134.761 11.0744 134.73 11.2881C134.657 11.7968 134.604 12.3148 134.556 12.8216C134.513 13.2948 134.669 13.9873 134.416 14.1982C133.888 14.6369 133.986 15.14 133.962 15.6356C133.869 17.4761 133.82 19.3204 133.74 21.1628C133.659 21.5887 133.617 22.021 133.613 22.4545C133.692 22.9664 133.665 23.4891 133.535 23.9905C133.406 24.492 133.175 24.9617 132.858 25.3712C131.241 25.2149 129.609 25.3734 128.053 25.8378C125.857 26.4454 123.622 26.913 121.416 27.488C120.342 27.768 120.008 28.328 120.458 29.308C120.935 30.6989 121.812 31.9182 122.978 32.8136C124.639 33.8869 126.268 35.0088 128.009 36.1736C128.264 37.0549 128.222 37.9957 127.888 38.8504C127.461 40.3334 126.971 41.7978 126.534 43.2772C126.26 44.203 126.031 45.1438 125.794 46.0772C125.783 46.1201 125.888 46.1938 125.956 46.2704L126.702 45.897C126.92 46.598 126.356 46.7268 126.036 46.9405C125.656 47.1679 125.366 47.52 125.216 47.9368C125.066 48.3536 125.065 48.8096 125.213 49.2272C125.276 49.4638 125.303 49.7086 125.292 49.9533C125.26 50.4638 125.128 50.9734 125.142 51.4802C125.164 52.3473 125.266 53.2116 125.335 54.0814C126.632 55.3284 128.282 55.2808 129.908 55.2948C130.487 55.3245 131.061 55.1849 131.561 54.8931C132.061 54.6013 132.465 54.17 132.723 53.6521C133.458 52.2562 134.158 50.8421 134.822 49.411C135.809 47.3092 136.76 45.1886 137.823 42.8609C138.185 43.4526 138.454 43.8446 138.675 44.2609C139.212 45.2773 139.677 46.3348 140.262 47.3222C141.873 50.0569 143.353 52.8812 146.17 54.6825C146.689 55.0526 147.285 55.3012 147.914 55.4097C148.542 55.5183 149.187 55.4841 149.801 55.3097C150.509 55.11 151.302 55.0297 151.712 54.2644C152.208 53.3366 152.769 52.4388 152.228 51.3066C152.087 51.0136 152.188 50.6113 152.135 50.2641C151.916 48.782 151.782 47.2774 151.426 45.8308C151.062 44.3449 150.483 42.9113 149.988 41.46C149.69 40.5845 149.358 39.7193 149.065 38.8401C148.557 37.5598 148.237 36.2122 148.118 34.8398C148.646 34.6924 149.104 34.5505 149.57 34.4348C151.46 33.9681 152.782 32.6484 154.074 31.3314C154.81 30.5848 155.381 29.6776 156.058 28.8637C157.026 27.7008 156.956 26.6909 155.733 25.8266ZM148.293 30.1993C147.771 30.764 147.118 31.1918 146.391 31.4453C145.665 31.6989 144.887 31.7703 144.127 31.6534C143.655 32.093 143.237 32.5606 143.873 33.2886C144.012 33.4492 143.948 33.8654 143.863 34.1286C143.681 34.5094 143.634 34.9405 143.729 35.3515C143.824 35.7625 144.055 36.1292 144.385 36.392C144.642 36.6879 144.814 37.0473 144.884 37.4326C145.373 39.0828 145.817 40.746 146.31 42.3961C146.749 43.3345 147.041 44.3354 147.173 45.3632C147.207 45.8598 147.265 46.3545 147.348 46.8453C147.499 48.1668 147.54 49.4986 147.469 50.8269C146.656 49.8008 145.902 48.7288 145.212 47.6162C144.108 45.6105 143.152 43.5208 142.132 41.4693C141.852 40.9158 141.55 40.3773 141.292 39.8164C141.109 39.3827 140.779 39.0277 140.359 38.8138C139.94 38.5998 139.459 38.5407 139 38.6469C138.259 38.7402 137.538 38.981 136.804 39.1434C136.659 39.1587 136.518 39.2027 136.391 39.2728C136.263 39.3429 136.15 39.4378 136.059 39.5518C135.969 39.6659 135.902 39.7969 135.862 39.9371C135.822 40.0774 135.811 40.2242 135.829 40.3689C135.863 40.6235 135.838 40.8825 135.757 41.1264C135.676 41.3702 135.541 41.5925 135.362 41.7764C134.335 43.363 133.297 44.9404 132.282 46.5364C132.188 46.7515 132.13 46.9803 132.11 47.214C132.082 47.3362 132.101 47.536 132.03 47.5724C130.723 48.264 130.755 49.8366 129.71 50.7933C129.794 50.363 129.844 49.9225 129.965 49.5034C130.906 46.2442 131.844 42.9822 132.825 39.7352C133.099 38.8967 133.435 38.0794 133.828 37.2898C133.891 37.198 133.935 37.0944 133.958 36.9853C133.98 36.8762 133.98 36.7637 133.958 36.6545C133.936 36.5453 133.893 36.4416 133.83 36.3496C133.767 36.2575 133.687 36.1789 133.593 36.1185C132.891 35.6789 132.157 35.2932 131.396 34.9649C129.503 34.1426 127.585 33.3782 125.694 32.5522C125.383 32.3837 125.12 32.1382 124.93 31.8392C124.326 30.9889 124.457 30.5689 125.388 30.0724C127.599 28.9635 129.967 28.2023 132.41 27.8156C133.428 27.5436 134.401 27.1251 135.298 26.5733C135.573 26.3561 135.75 26.0395 135.792 25.6922C136.035 24.2614 136.209 22.8166 136.429 21.3793C136.587 20.3368 136.791 19.3026 136.949 18.261C137.151 16.9236 137.229 15.5544 137.546 14.2477C137.935 12.9887 138.395 11.7525 138.924 10.5452C139.061 10.7907 139.175 11.0489 139.264 11.3161C139.627 13.9294 140.394 16.4774 140.313 19.1645C140.311 20.3991 140.453 21.6298 140.736 22.8316C141.283 25.4589 143.73 26.7936 146.367 26.3549C147.66 26.1412 148.955 25.6904 150.356 26.4361C150.636 28.2094 149.423 29.1493 148.293 30.1993Z" fill="black"/>
<path d="M75.4799 31.9125C76.0433 32.2149 76.6112 32.5056 77.1773 32.8026C78.0767 33.2701 78.9425 33.7997 79.7684 34.3875C80.0609 34.5981 80.6801 34.8942 80.1599 35.4918C80.1455 35.508 80.3093 35.6484 80.3489 35.7474C80.605 36.3229 80.6939 36.9588 80.6054 37.5825C80.4074 38.8866 79.9871 40.1322 79.7954 41.4345C79.5425 43.1328 79.1654 44.8131 78.8585 46.5042C78.8113 46.8625 78.7831 47.2229 78.7739 47.5842C79.0948 47.3266 79.3587 47.0051 79.5488 46.6401C79.701 46.3359 79.8735 46.0425 80.0654 45.7617C80.9516 44.6834 81.6831 43.4869 82.2389 42.2067C82.4609 41.6596 82.8153 41.1762 83.2703 40.8C83.7325 40.4334 84.1241 39.9857 84.4259 39.4788C84.7688 38.8622 85.2736 38.3511 85.8859 38.0007C86.4982 37.6503 87.1946 37.474 87.8999 37.4907C88.1488 37.4718 88.3988 37.5087 88.6316 37.5987C89.1041 37.803 89.5541 38.055 90.0041 38.3025C90.2846 38.4367 90.5505 38.5992 90.7979 38.7876C92.1893 39.9594 93.5726 41.142 94.9478 42.3354C95.6381 42.8939 96.2853 43.5037 96.8837 44.1597C97.1609 44.4873 97.2887 44.8797 97.8098 44.814C97.8512 44.8086 97.9241 44.8788 97.9457 44.9301C98.1869 45.4872 98.7755 45.5727 99.2057 45.8679C99.9033 46.3252 100.508 46.9103 100.989 47.5923C101.036 47.5131 101.132 47.4276 101.117 47.3691C100.812 46.1541 100.558 44.9193 100.157 43.7349C99.9113 42.9714 99.7475 42.184 99.6683 41.3859C99.6512 41.2383 99.6854 40.9836 99.6233 40.9575C98.9933 40.701 99.0554 39.9927 98.6819 39.5688C98.5068 39.3156 98.3844 39.0297 98.3219 38.7282C98.2138 38.1642 98.0557 37.6109 97.8494 37.0749C97.2204 35.9485 96.7366 34.7471 96.4094 33.4992C96.3371 33.2715 96.3262 33.0287 96.3779 32.7954C96.4995 32.5615 96.528 32.2903 96.4579 32.0363C96.3878 31.7822 96.2242 31.564 95.9999 31.4256C96.1052 31.1826 96.1376 30.8856 96.2834 30.81C96.8387 30.5346 96.836 30.0405 96.9134 29.55C96.9383 29.3428 97.0363 29.1514 97.1897 29.01C97.9781 28.4376 98.1365 27.3621 98.9627 26.8302C98.9756 26.8214 98.9862 26.8098 98.9937 26.7962C99.0012 26.7826 99.0054 26.7674 99.0059 26.7519C98.8835 25.9419 99.4415 26.0319 99.9212 26.0868C100.291 25.0197 101.031 24.1203 102.007 23.5515C102.237 23.4403 102.436 23.2711 102.582 23.0606C102.728 22.85 102.817 22.6052 102.84 22.35L103.165 22.9503L103.737 22.5291L103.197 22.1007C103.44 21.9783 103.647 21.8757 103.852 21.7704C104.337 21.5211 104.905 21.1161 104.808 20.6373C104.684 20.0289 104.988 19.8021 105.283 19.4673C105.72 19.1053 106.001 18.5901 106.07 18.0273C105.52 17.929 104.953 18.0421 104.482 18.3441C103.837 18.7248 102.924 18.4719 102.461 19.236C102.443 19.2666 102.339 19.2639 102.281 19.2477C101.916 19.1442 101.717 19.4025 101.481 19.596C101.318 19.7365 101.14 19.8593 100.951 19.9623C100.297 20.2971 99.6422 20.6283 98.9708 20.9352C98.2871 21.1413 97.6242 21.411 96.9908 21.7407C96.6807 21.9241 96.3576 22.0847 96.0242 22.2213C94.6931 22.8927 93.2036 23.2365 91.9949 24.1635C91.9472 24.2004 91.8536 24.2535 91.8311 24.2355C91.2776 23.7999 91.2407 24.5757 90.9572 24.6351C90.5566 24.5275 90.1865 24.3283 89.8761 24.053C89.5657 23.7778 89.3236 23.4342 89.1689 23.0493C88.7072 22.0747 88.3314 21.0616 88.0457 20.0217C87.9192 19.4027 87.7261 18.7992 87.4697 18.2217C87.2419 17.5472 87.0889 16.8497 87.0134 16.1418C86.9576 16.0824 86.7722 15.9744 86.7362 15.8286C86.5715 15.1743 86.4824 14.5002 86.3042 13.8486C85.9955 12.7236 85.6472 11.6085 85.3025 10.4934C85.2125 10.2144 85.0802 9.95339 84.9173 9.56189C84.8237 9.70817 84.7424 9.862 84.6743 10.0218C84.2543 11.5722 83.8373 13.1241 83.4233 14.6775C83.3211 15.3829 83.1312 16.0729 82.8581 16.7313C82.3362 17.8417 81.9726 19.0199 81.7781 20.2314C81.2552 21.8799 80.9733 23.5953 80.9411 25.3245C80.8922 25.5898 80.7978 25.8446 80.6621 26.0778C79.3953 26.165 78.1245 26.18 76.856 26.1228C75.3228 25.9647 73.7742 26.046 72.266 26.364C70.7908 26.7419 69.241 26.7155 67.7795 26.2875C67.5603 26.2569 67.3375 26.2639 67.1207 26.3082L67.0703 26.5116C67.3287 26.7144 67.5992 26.9014 67.8803 27.0714C70.5479 28.4799 72.824 30.4869 75.4799 31.9125Z" fill="#FFCB11"/>
<path d="M63.0457 25.8051C63.8446 26.5253 64.6884 27.1941 65.572 27.8076C67.047 28.6613 68.4735 29.596 69.8452 30.6075C71.8245 32.249 74.0014 33.6364 76.3252 34.7376C76.9057 35.0076 77.533 35.2299 77.5672 36.0462C77.5735 36.192 77.7787 36.3297 77.8579 36.4278C77.5582 37.641 77.2567 38.7795 77.0074 39.9297C76.9264 40.3032 77.0245 40.6641 76.6942 41.025C76.1542 41.6163 76.2172 41.9943 76.7203 42.7008C76.5034 42.8511 76.1848 42.9546 76.0903 43.1607C75.8206 43.6102 75.6715 44.1217 75.6574 44.6457C75.8194 45.8796 75.3307 47.0154 75.2839 48.2097C75.2089 48.5686 75.093 48.9177 74.9383 49.2501C74.9071 49.4186 74.896 49.5902 74.905 49.7613C74.896 49.9611 74.8942 50.1609 74.8825 50.3598C74.8708 50.5587 74.7871 50.7612 74.8483 50.9205C74.9726 51.1704 75.1177 51.4095 75.2821 51.6351C75.3046 51.6729 75.2659 51.7467 75.256 51.8043L74.6035 51.8628C74.8474 52.122 75.1813 52.167 75.3739 52.3551C75.9521 52.7664 76.6312 53.0127 77.3386 53.0679C77.9703 53.1201 78.604 52.9948 79.1684 52.7062C79.7327 52.4176 80.2052 51.9771 80.5327 51.4344C80.9751 50.5722 81.4979 49.7538 82.0942 48.99C82.7719 47.9322 83.3306 46.8028 83.7601 45.6222C83.9141 45.1327 84.2022 44.6962 84.5917 44.3622C85.4025 43.7317 86.0281 42.894 86.4025 41.9376C86.6843 41.2529 87.1519 40.6606 87.7525 40.2276C89.197 41.5965 90.5875 42.9276 91.9888 44.2389C92.5288 44.7465 93.094 45.2289 93.6475 45.723C94.5367 45.6402 94.8661 46.4673 95.4727 46.8444C95.7841 47.0388 96.0937 47.2368 96.3943 47.4465C96.4972 47.5085 96.5759 47.6037 96.6175 47.7165C96.6222 47.8726 96.6594 48.026 96.7268 48.167C96.7942 48.3079 96.8903 48.4332 97.0089 48.5348C97.1275 48.6365 97.266 48.7123 97.4156 48.7573C97.5651 48.8024 97.7225 48.8157 97.8775 48.7965C97.9531 48.7965 98.0422 48.8676 98.1106 48.9234C98.7019 49.4067 99.2896 49.8936 99.8935 50.3913C100.28 50.0016 100.541 49.962 100.874 50.4444C101.002 50.7185 101.206 50.9507 101.46 51.1146C101.715 51.2784 102.011 51.3671 102.314 51.3705V52.3911C102.903 52.5916 103.511 52.7345 104.128 52.8177C104.678 52.7886 105.223 52.6891 105.748 52.5216C106.492 52.3551 106.479 52.3416 106.614 51.5883C106.674 51.3573 106.755 51.1323 106.856 50.916C106.534 50.3131 106.258 49.687 106.029 49.0431C105.596 47.434 105.061 45.8542 104.427 44.3136C103.942 43.167 103.592 41.9637 103.146 40.7991C102.665 39.5391 102.14 38.2953 101.642 37.0407C101.511 36.5987 101.351 36.1657 101.163 35.7447C100.79 35.1132 100.594 34.3929 100.595 33.6594C100.633 32.5374 100.363 31.4264 99.8134 30.4473C99.9603 30.1751 100.123 29.9118 100.301 29.6589C101.117 28.5045 102.016 27.4108 102.99 26.3865C104.059 25.3749 104.88 24.1032 105.969 23.1159C106.816 22.192 107.59 21.2052 108.287 20.1639C108.973 19.1559 109.556 18.082 110.028 16.9581C109.782 16.2606 109.185 16.1571 108.599 16.0779C107.672 15.9643 106.732 16.0521 105.842 16.3353C104.79 16.5938 103.769 16.9649 102.797 17.4423C101.795 17.9135 100.767 18.327 99.718 18.6807C97.405 19.6293 95.0992 20.5941 92.788 21.5526C92.5315 21.6597 92.2777 21.7758 92.0167 21.8712C91.9474 21.9073 91.8706 21.9266 91.7926 21.9275C91.7145 21.9284 91.6372 21.911 91.5672 21.8766C91.4971 21.8421 91.4361 21.7917 91.3891 21.7293C91.3421 21.6669 91.3104 21.5944 91.2967 21.5175C90.979 20.6814 90.6487 19.8507 90.3274 19.0155C89.8522 17.7789 89.323 16.5594 88.9261 15.2985C88.603 14.2707 88.4365 13.1943 88.2061 12.1377C88.0122 11.4351 87.8669 10.72 87.7714 9.99748C87.5811 8.79338 87.1547 7.63876 86.5168 6.59998C85.9095 6.61389 85.3035 6.66468 84.7024 6.75208C84.0409 6.89158 83.3704 7.08868 83.1724 7.89238C82.8943 9.01378 83.1985 10.2558 82.4686 11.2845C82.4389 11.3277 82.4686 11.4087 82.4569 11.4645C82.3426 12.0387 82.2103 12.6093 82.1167 13.1853C82.1009 13.4252 82.1057 13.6661 82.1311 13.9053C82.1464 14.0158 82.1385 14.1283 82.1077 14.2356C81.8521 14.7603 81.5785 15.276 81.2977 15.8196C81.8035 16.518 81.4327 17.2362 81.2401 17.9094C80.8591 19.0331 80.6014 20.1949 80.4715 21.3744C80.4535 21.6525 80.2132 21.9576 80.2789 22.1934C80.5111 23.0295 79.7929 23.565 79.8289 24.2634C78.4879 24.1005 77.2702 23.9484 76.0489 23.8053C75.617 23.8032 75.1864 23.7598 74.7628 23.6757C73.947 23.4797 73.1003 23.4491 72.2725 23.5857C70.1737 23.7576 68.074 24.0132 65.9725 24.0303C64.8025 24.0402 63.7333 24.42 62.6011 24.4659C62.6857 25.4424 62.6569 25.4766 63.0457 25.8051ZM67.1272 26.3109C67.344 26.2666 67.5668 26.2596 67.786 26.2902C69.2475 26.7182 70.7972 26.7446 72.2725 26.3667C73.7807 26.0487 75.3292 25.9674 76.8625 26.1255C78.131 26.1827 79.4018 26.1677 80.6686 26.0805C80.8043 25.8473 80.8987 25.5925 80.9476 25.3272C80.9787 23.5979 81.2607 21.8824 81.7846 20.2341C81.9741 19.0214 82.3379 17.8426 82.8646 16.734C83.1361 16.075 83.3259 15.3853 83.4298 14.6802C83.8426 13.1274 84.2596 11.5755 84.6808 10.0245C84.7489 9.86469 84.8301 9.71086 84.9238 9.56458C85.0867 9.95338 85.2226 10.2171 85.309 10.4961C85.6537 11.6112 86.002 12.7263 86.3107 13.8513C86.4907 14.502 86.5807 15.1761 86.7427 15.8313C86.7787 15.9771 86.9641 16.0851 87.0199 16.1445C87.0952 16.8524 87.2482 17.5499 87.4762 18.2244C87.7325 18.8018 87.9257 19.4054 88.0522 20.0244C88.3378 21.0643 88.7137 22.0774 89.1754 23.052C89.3295 23.4366 89.571 23.7801 89.8808 24.0553C90.1905 24.3305 90.56 24.5299 90.9601 24.6378C91.2436 24.5784 91.2805 23.8026 91.834 24.2382C91.8565 24.2562 91.9501 24.2031 91.9978 24.1662C93.2065 23.2392 94.6978 22.8954 96.0271 22.224C96.3605 22.0874 96.6835 21.9268 96.9937 21.7434C97.6269 21.4133 98.2899 21.1436 98.9737 20.9379C99.64 20.6266 100.3 20.3023 100.954 19.965C101.143 19.862 101.321 19.7392 101.484 19.5987C101.72 19.4052 101.918 19.1487 102.284 19.2504C102.34 19.2666 102.444 19.2693 102.464 19.2387C102.926 18.4746 103.84 18.7275 104.485 18.3468C104.956 18.0451 105.523 17.9319 106.073 18.03C106.004 18.5926 105.722 19.1077 105.286 19.47C104.987 19.8048 104.687 20.0316 104.811 20.64C104.908 21.1188 104.339 21.5238 103.854 21.7731C103.649 21.8784 103.443 21.981 103.2 22.1034L103.74 22.5318L103.168 22.953L102.84 22.35C102.817 22.6052 102.728 22.8502 102.582 23.0609C102.436 23.2716 102.238 23.441 102.008 23.5524C101.03 24.1142 100.29 25.012 99.925 26.0787C99.4453 26.0265 98.8873 25.9383 99.0097 26.7438C99.0091 26.7593 99.0048 26.7744 98.9973 26.788C98.9898 26.8016 98.9793 26.8133 98.9665 26.8221C98.1403 27.354 97.9819 28.4295 97.1935 29.0019C97.04 29.1433 96.9421 29.3347 96.9172 29.5419C96.8416 30.0351 96.8443 30.5319 96.2872 30.8019C96.1414 30.8739 96.1072 31.1745 96.0037 31.4175C96.2283 31.5556 96.3923 31.7737 96.4627 32.0278C96.5332 32.2818 96.5049 32.5532 96.3835 32.7873C96.3318 33.0206 96.3427 33.2633 96.415 33.4911C96.7375 34.7405 97.2216 35.9425 97.855 37.0668C98.0613 37.6028 98.2194 38.156 98.3275 38.7201C98.3887 39.022 98.5112 39.3081 98.6875 39.5607C99.061 39.9846 99.0025 40.6929 99.6289 40.9494C99.691 40.9755 99.6568 41.2302 99.6739 41.3778C99.753 42.1759 99.9168 42.9633 100.163 43.7268C100.564 44.9112 100.818 46.146 101.123 47.361C101.137 47.4195 101.042 47.505 100.994 47.5842C100.512 46.902 99.9051 46.317 99.2059 45.8598C98.773 45.5646 98.1844 45.4791 97.9459 44.922C97.9243 44.8707 97.8514 44.8005 97.81 44.8059C97.2889 44.8698 97.1611 44.4792 96.8839 44.1516C96.2859 43.4966 95.6394 42.8876 94.9498 42.33C93.5698 41.1366 92.1856 39.9549 90.7972 38.7849C90.5497 38.5974 90.2838 38.4357 90.0034 38.3025C89.5534 38.0577 89.1034 37.8057 88.6291 37.6032C88.3963 37.5132 88.1463 37.4763 87.8974 37.4952C87.1923 37.4786 86.496 37.6551 85.8839 38.0055C85.2718 38.3558 84.7671 38.8669 84.4243 39.4833C84.1214 39.9894 83.73 40.437 83.2687 40.8045C82.8127 41.1804 82.4574 41.6638 82.2346 42.2112C81.6802 43.4921 80.9485 44.6888 80.0611 45.7662C79.8692 46.047 79.6966 46.3404 79.5445 46.6446C79.3533 47.0089 79.0896 47.3302 78.7696 47.5887C78.7787 47.2274 78.8069 46.8669 78.8542 46.5087C79.162 44.8176 79.5382 43.1373 79.7911 41.439C79.9846 40.1367 80.4049 38.8911 80.6011 37.587C80.6904 36.9633 80.6015 36.3271 80.3446 35.7519C80.305 35.6529 80.1412 35.5125 80.1556 35.4963C80.6758 34.8987 80.0566 34.6026 79.7641 34.392C78.9382 33.8042 78.0724 33.2746 77.173 32.8071C76.6069 32.5101 76.039 32.2194 75.4756 31.917C72.8224 30.4923 70.5463 28.4853 67.8859 27.0795C67.6047 26.9097 67.3341 26.7227 67.0759 26.5197C67.093 26.4459 67.1101 26.3793 67.1272 26.3109Z" fill="black" stroke="black"/>
</svg>
